<?xml version="1.0" encoding="utf-8"?>
<!-- Generator: Adobe Illustrator 27.5.0, SVG Export Plug-In . SVG Version: 6.00 Build 0)  -->
<svg version="1.1" id="Capa_2" xmlns="http://www.w3.org/2000/svg" xmlns:xlink="http://www.w3.org/1999/xlink" x="0px" y="0px"
	 viewBox="0 0 2122 2122" style="enable-background:new 0 0 2122 2122;" xml:space="preserve">
<path style="fill:#4F66AE;" d="M1908.727,1060.487L1908.727,1060.487L1908.727,1060.487L1908.727,1060.487
	c-0.643,0.963-1.293,1.924-1.942,2.884l-0.381,0.566c-0.326,0.481-0.654,0.96-0.982,1.44c-0.393,0.578-0.789,1.155-1.185,1.732
	c-0.515,0.75-1.033,1.499-1.552,2.247l-0.492,0.708c-0.625,0.897-1.251,1.794-1.88,2.689l0,0
	c-108.623,154.292-288.097,255.106-491.131,255.106c-331.499,0-600.23-268.732-600.23-600.23
	c0-208.984,106.806-393.016,268.807-500.504l0.007-0.001c3.488-2.315,7.002-4.594,10.541-6.838l0.422-0.267
	c0.738-0.467,1.477-0.933,2.218-1.397l0.833-0.521c0.63-0.393,1.26-0.786,1.89-1.177l1.302-0.802l1.259-0.774l0.445-0.272
	c0.652-0.399,1.305-0.795,1.959-1.191l0.593-0.36l0.108-0.065h-0.001h0.001c-3.204-0.144-6.415-0.27-9.628-0.378
	c-6.428-0.216-12.875-0.362-19.337-0.434c-3.232-0.036-6.468-0.054-9.708-0.054c-53.058,0-104.978,4.872-155.337,14.194
	c-3.473,0.643-6.938,1.307-10.397,1.992c-10.375,2.055-20.681,4.3-30.914,6.73c-1.707,0.405-3.41,0.815-5.112,1.231
	c-3.059,0.746-6.11,1.512-9.155,2.291c-4.096,1.048-8.182,2.126-12.254,3.234c-2.637,0.717-5.269,1.447-7.897,2.19
	c-2.046,0.578-4.089,1.161-6.129,1.754c-5.018,1.459-10.017,2.963-14.996,4.511c-3.32,1.032-6.63,2.085-9.932,3.157
	c-13.208,4.288-26.272,8.891-39.187,13.801c-3.228,1.228-6.447,2.474-9.657,3.74c-1.606,0.633-3.208,1.27-4.807,1.913
	c-3.2,1.284-6.39,2.588-9.571,3.91c-7.951,3.306-15.841,6.729-23.668,10.267c-3.13,1.416-6.251,2.85-9.361,4.302
	c-6.221,2.905-12.4,5.882-18.537,8.932c-3.069,1.525-6.126,3.068-9.174,4.629c-3.047,1.561-6.084,3.14-9.11,4.736
	c-3.026,1.596-6.041,3.211-9.045,4.843c-4.506,2.448-8.988,4.936-13.444,7.463c-2.971,1.684-5.93,3.386-8.879,5.105
	c-1.474,0.86-2.945,1.724-4.414,2.592c-1.469,0.868-2.934,1.741-4.397,2.618c-5.852,3.507-11.657,7.083-17.416,10.726
	c-5.758,3.643-11.471,7.354-17.134,11.131c-5.664,3.777-11.28,7.62-16.846,11.529c-9.742,6.84-19.333,13.88-28.767,21.113
	c-18.87,14.467-37.114,29.709-54.684,45.679c-1.256,1.141-2.507,2.285-3.755,3.433c-7.489,6.888-14.854,13.91-22.09,21.061
	c-2.413,2.384-4.811,4.782-7.195,7.194c-9.534,9.649-18.839,19.526-27.905,29.62c-2.267,2.524-4.518,5.061-6.754,7.613
	c-6.71,7.653-13.284,15.428-19.719,23.32c-1.073,1.316-2.141,2.634-3.206,3.956c-2.13,2.644-4.244,5.301-6.342,7.971
	c-1.049,1.335-2.094,2.673-3.135,4.015c-3.125,4.024-6.212,8.077-9.265,12.159c-1.018,1.361-2.031,2.725-3.041,4.091
	c-13.123,17.769-25.569,36.068-37.3,54.86c-1.804,2.891-3.592,5.794-5.363,8.708c-2.656,4.371-5.273,8.769-7.852,13.191
	c-0.86,1.475-1.715,2.951-2.566,4.431c-71.479,124.309-112.36,268.446-112.36,422.131v0c0,23.785,0.979,47.34,2.9,70.629
	c0.148,1.792,0.301,3.582,0.46,5.37c2.54,28.613,6.503,56.818,11.815,84.542c0.332,1.733,0.669,3.464,1.012,5.193
	c6.509,32.851,14.914,65.02,25.099,96.387c0.536,1.651,1.077,3.299,1.622,4.946c3.275,9.879,6.727,19.676,10.352,29.39
	c0.604,1.619,1.213,3.236,1.827,4.85c7.365,19.371,15.419,38.403,24.132,57.064c0.726,1.556,1.457,3.108,2.192,4.658
	c4.411,9.3,8.987,18.507,13.724,27.617c1.578,3.036,3.175,6.062,4.789,9.078c1.614,3.015,3.246,6.019,4.896,9.013
	c1.65,2.993,3.317,5.975,5.002,8.946c18.53,32.681,39.166,64.009,61.726,93.801c1.025,1.354,2.054,2.705,3.088,4.052
	c6.2,8.087,12.543,16.059,19.024,23.912c1.08,1.309,2.165,2.615,3.252,3.917c2.175,2.605,4.366,5.195,6.573,7.774
	c1.103,1.289,2.211,2.574,3.321,3.857c7.775,8.976,15.736,17.787,23.875,26.427c1.163,1.234,2.329,2.465,3.499,3.692
	c4.681,4.909,9.42,9.762,14.216,14.558l0.011,0.01c2.384,2.383,4.781,4.754,7.194,7.108l0.143,0.139
	c1.176,1.148,2.356,2.294,3.539,3.435c1.168,1.128,2.341,2.251,3.515,3.372c1.363,1.3,2.729,2.595,4.101,3.885
	c1.151,1.084,2.303,2.165,3.461,3.242c3.604,3.355,7.239,6.678,10.9,9.97c1.552,1.395,3.11,2.784,4.671,4.168
	c1.1,0.974,2.201,1.947,3.306,2.916c2.374,2.081,4.761,4.148,7.158,6.203l1.115,0.954c2.182,1.863,4.373,3.716,6.574,5.558
	c1.742,1.458,3.491,2.91,5.245,4.355c2.137,1.759,4.282,3.508,6.435,5.247c0.514,0.415,1.029,0.829,1.545,1.243
	c2.105,1.692,4.219,3.374,6.341,5.046c3.264,2.571,6.548,5.119,9.85,7.644c2.043,1.562,4.094,3.115,6.152,4.659
	c0.686,0.514,1.372,1.027,2.059,1.539c3.362,2.506,6.743,4.987,10.143,7.444c7.719,5.58,15.538,11.032,23.45,16.354
	c4.325,2.91,8.679,5.78,13.06,8.612c1.743,1.126,3.49,2.246,5.242,3.361c1.114,0.708,2.229,1.414,3.347,2.117
	c4.668,2.939,9.368,5.833,14.096,8.682c1.095,0.66,2.191,1.317,3.289,1.972c46.333,27.63,95.52,50.969,147.017,69.466
	c1.628,0.585,3.259,1.165,4.891,1.74c88.175,31.057,183.027,47.951,281.824,47.951c468.375,0,848.066-379.694,848.066-848.068
	L1908.727,1060.487L1908.727,1060.487z"/>
<path style="fill:#4F66AE;" d="M1053.454,612.368c-19.084,15.736-37.675,21.868-64.775,26.288
	c80.837,22.453,102.802,122.938,111.911,149.273c9.109-26.335,31.075-126.82,111.912-149.273
	c-27.099-4.42-45.691-10.552-64.775-26.288c-17.266-14.236-38.082-46.601-47.137-94.684
	C1091.536,565.767,1070.72,598.132,1053.454,612.368z"/>
<path style="fill:#4F66AE;" d="M1312.302,921.785c3.713-10.734,12.666-51.692,45.616-60.845
	c-11.046-1.802-18.624-4.301-26.402-10.715c-7.037-5.803-15.522-18.995-19.213-38.594c-3.691,19.599-12.176,32.791-19.213,38.594
	c-7.779,6.414-15.357,8.913-26.403,10.715C1299.635,870.092,1308.589,911.051,1312.302,921.785z"/>
<path style="fill:#4F66AE;" d="M1073.165,1069.457c5.152-14.897,17.577-71.736,63.303-84.437c-15.329-2.5-25.845-5.969-36.64-14.87
	c-9.766-8.053-21.541-26.36-26.663-53.559c-5.122,27.199-16.898,45.506-26.663,53.559c-10.795,8.901-21.311,12.37-36.641,14.87
	C1055.587,997.72,1068.012,1054.56,1073.165,1069.457z"/>
<path style="fill:#4F66AE;" d="M999.877,819.573c-7.152,0-12.951,5.798-12.951,12.95c0,7.152,5.798,12.95,12.951,12.95
	c7.151,0,12.95-5.798,12.95-12.95C1012.827,825.371,1007.028,819.573,999.877,819.573z"/>
<path style="fill:#4F66AE;" d="M1220.666,586.68c5.276,0,9.553-4.277,9.553-9.554c0-5.276-4.277-9.553-9.553-9.553
	c-5.276,0-9.553,4.277-9.553,9.553C1211.113,582.403,1215.39,586.68,1220.666,586.68z"/>
<path style="fill:#4F66AE;" d="M1193.28,1136.282c0,4.361,3.536,7.896,7.896,7.896c4.36,0,7.895-3.535,7.895-7.896
	c0-4.36-3.535-7.896-7.895-7.896C1196.816,1128.386,1193.28,1131.921,1193.28,1136.282z"/>
<path style="fill:#4F66AE;" d="M1260.791,801.315c4.361,0,7.896-3.535,7.896-7.896c0-4.36-3.535-7.896-7.896-7.896
	c-4.361,0-7.896,3.535-7.896,7.896C1252.895,797.78,1256.429,801.315,1260.791,801.315z"/>
<path style="fill:#3D4E9D;" d="M510.085,566.768c7.156,37.998,23.607,63.575,37.25,74.825c8.612,7.1,17.097,11.726,26.778,15.039
	c79.861-209.601,257.815-370.799,477.752-427.491c-278.812,26.274-510.264,197.191-625.727,432.454
	c19.025-3.452,32.694-8.455,46.697-20.002C486.478,630.343,502.928,604.766,510.085,566.768z"/>
<path style="fill:#3D4E9D;" d="M1833.61,1259.16c0,5.862-4.752,10.615-10.615,10.615l-1.075-0.054
	c-122.754,199.992-343.456,333.387-595.317,333.387c-123.23,0-239-31.935-339.49-87.978c-6.745,16.038-10.443,30.442-12.849,37.398
	c-3.483-10.069-9.674-35.746-23.901-59.397c-193.525-124.08-321.771-341.081-321.771-588.035c0-79.12,13.164-155.165,37.421-226.065
	c-37.793,29.993-50.144,84.574-55.929,101.3c-7.063-20.416-23.904-97.222-84.852-116.884
	c-58.761,120.535-87.119,257.855-75.878,401.209c33.597,428.439,408.151,748.521,836.591,714.925
	c145.016-11.372,277.616-61.809,388.29-140.173c-3.742-5.977-9.121-11.442-16.979-13.625c6.087-0.992,10.262-2.37,14.548-5.904
	c3.878-3.197,8.553-10.467,10.587-21.266c2.034,10.799,6.709,18.069,10.586,21.266c1.346,1.11,2.682,2.007,4.069,2.746
	c163.783-125.156,275.2-313.258,300.677-525.018c-15.727,54.929-38.014,107.088-65.962,155.572
	C1832.928,1254.881,1833.61,1256.941,1833.61,1259.16z"/>
<path style="fill:#384192;" d="M1906.488,1063.813l-0.062,0.092c-0.344,0.508-0.692,1.014-1.037,1.522
	c-0.383,0.561-0.766,1.122-1.151,1.682c-0.515,0.75-1.033,1.499-1.552,2.247l-0.492,0.708c-0.625,0.898-1.251,1.794-1.881,2.689
	c-0.729,8.319-1.594,16.604-2.586,24.853c-25.477,211.76-136.894,399.862-300.677,525.018c3.029,1.614,6.305,2.477,10.48,3.157
	c-18.156,5.043-23.09,27.612-25.135,33.527c-1.161-3.355-3.251-12.068-8.156-19.902c-110.675,78.364-243.274,128.801-388.29,140.173
	c-428.44,33.597-802.994-286.486-836.591-714.925c-11.242-143.354,17.116-280.674,75.878-401.209
	c-1.18-0.381-2.374-0.742-3.588-1.08c1.531-0.25,3.026-0.507,4.492-0.772c115.464-235.263,346.915-406.18,625.727-432.454
	c4.128-0.389,8.266-0.75,12.415-1.076c4.498-0.353,8.994-0.666,13.479-0.941h0.006c3.469-2.302,6.963-4.569,10.482-6.801l0.553-0.35
	c0.715-0.452,1.431-0.904,2.149-1.354l0.855-0.534c0.614-0.384,1.228-0.767,1.844-1.148l1.333-0.822l1.293-0.795l0.243-0.149
	c0.594-0.363,1.19-0.724,1.785-1.085l1.033-0.628l-0.389-0.016c-1.473-0.065-2.947-0.128-4.422-0.186l-0.167-0.006l-0.423-0.015
	c-1.301-0.05-2.602-0.098-3.905-0.143c-0.591-0.02-1.181-0.038-1.774-0.057c-0.916-0.029-1.832-0.058-2.748-0.084
	c-0.667-0.02-1.335-0.037-2.004-0.054c-0.855-0.022-1.711-0.045-2.567-0.065c-0.668-0.016-1.336-0.03-2.005-0.044
	c-0.87-0.018-1.74-0.035-2.611-0.051c-0.655-0.012-1.309-0.024-1.965-0.035c-0.884-0.014-1.769-0.025-2.653-0.037
	c-0.653-0.008-1.305-0.017-1.958-0.024c-0.996-0.011-1.994-0.018-2.991-0.025c-0.497-0.003-0.994-0.008-1.491-0.011
	c-1.534-0.008-3.068-0.013-4.603-0.013c-47.569,0-94.223,3.916-139.658,11.444c-3.496,0.579-6.983,1.18-10.464,1.802
	c-3.48,0.622-6.953,1.265-10.419,1.929c-13.862,2.656-27.605,5.65-41.219,8.972c-3.403,0.83-6.799,1.681-10.186,2.553
	c-3.386,0.872-6.766,1.763-10.137,2.676c-3.37,0.912-6.733,1.844-10.086,2.797c-6.708,1.905-13.381,3.891-20.021,5.956
	c-3.319,1.032-6.63,2.085-9.932,3.157c-3.302,1.072-6.594,2.164-9.878,3.275c-3.285,1.112-6.559,2.242-9.825,3.393
	c-8.165,2.876-16.272,5.873-24.319,8.989c-3.219,1.247-6.429,2.512-9.628,3.797c-3.2,1.284-6.39,2.588-9.571,3.91
	c-1.59,0.661-3.177,1.327-4.763,1.998c-3.171,1.341-6.332,2.701-9.482,4.079c-4.727,2.068-9.43,4.177-14.111,6.328
	c-1.56,0.717-3.118,1.439-4.673,2.165c-2.298,1.073-4.59,2.16-6.877,3.253c-3.14,1.501-6.268,3.019-9.386,4.557
	c-2.13,1.051-4.255,2.107-6.374,3.175l-1.335,0.675c-0.974,0.493-1.949,0.988-2.921,1.484l-1.293,0.661
	c-1.365,0.7-2.727,1.402-4.088,2.109c-3.036,1.578-6.062,3.175-9.077,4.789c-3.015,1.614-6.019,3.246-9.013,4.896
	c-2.992,1.649-5.975,3.316-8.945,5.001c-1.7,0.964-3.396,1.935-5.088,2.911c-0.517,0.297-1.031,0.597-1.546,0.895
	c-1.204,0.697-2.407,1.397-3.608,2.1c-0.561,0.329-1.123,0.659-1.684,0.99c-1.215,0.714-2.427,1.433-3.637,2.153
	c-0.491,0.292-0.982,0.583-1.473,0.877c-1.644,0.984-3.286,1.972-4.925,2.967l-0.219,0.133c-1.633,0.993-3.262,1.992-4.888,2.995
	c-0.499,0.308-0.999,0.619-1.497,0.929c-1.182,0.733-2.362,1.468-3.54,2.207c-0.559,0.35-1.117,0.701-1.674,1.051
	c-1.177,0.742-2.352,1.487-3.525,2.234c-0.494,0.315-0.989,0.629-1.482,0.944c-1.644,1.052-3.286,2.109-4.923,3.172
	c-1.277,0.83-2.55,1.664-3.822,2.499l-0.959,0.631c-1.133,0.747-2.264,1.496-3.393,2.248l-0.459,0.306
	c-1.253,0.836-2.503,1.676-3.751,2.518l-0.956,0.647c-1.022,0.692-2.043,1.386-3.062,2.082l-0.82,0.56
	c-1.197,0.82-2.391,1.643-3.584,2.469l-1.099,0.763c-0.941,0.654-1.881,1.31-2.819,1.967l-0.935,0.656
	c-1.486,1.044-2.966,2.092-4.445,3.146l-0.902,0.643c-1.472,1.052-2.941,2.107-4.406,3.168l-0.816,0.593
	c-1.5,1.089-2.997,2.181-4.489,3.279l-0.574,0.424c-1.581,1.165-3.157,2.334-4.729,3.509c-2.721,2.035-5.43,4.086-8.125,6.152
	c-1.045,0.802-2.088,1.607-3.129,2.412l-0.803,0.622c-1.001,0.777-2,1.555-2.997,2.335l-0.143,0.112
	c-1.049,0.821-2.094,1.646-3.138,2.471l-0.707,0.561c-0.964,0.765-1.928,1.531-2.889,2.3l-0.282,0.225
	c-1.032,0.826-2.061,1.656-3.091,2.487l-0.698,0.566c-0.966,0.783-1.932,1.568-2.895,2.354l-0.235,0.191
	c-0.992,0.811-1.981,1.626-2.969,2.442l-0.896,0.741c-0.919,0.761-1.838,1.523-2.754,2.288l-0.25,0.208
	c-0.997,0.833-1.992,1.67-2.985,2.507l-0.804,0.678c-0.925,0.782-1.85,1.567-2.772,2.353l-0.251,0.213
	c-0.984,0.84-1.966,1.683-2.947,2.527l-0.834,0.72c-0.855,0.738-1.709,1.478-2.562,2.22l-0.449,0.391
	c-0.983,0.858-1.964,1.717-2.943,2.578L500,424.348c-0.893,0.787-1.785,1.576-2.674,2.367l-0.343,0.305
	c-0.988,0.88-1.974,1.762-2.957,2.646l-0.661,0.596c-0.872,0.785-1.742,1.572-2.611,2.36l-0.402,0.365
	c-1.135,1.032-2.268,2.069-3.398,3.108l-0.526,0.483c-0.786,0.723-1.57,1.448-2.354,2.175l-0.241,0.223
	c-0.856,0.794-1.71,1.591-2.562,2.388l-0.734,0.69c-0.61,0.572-1.219,1.145-1.827,1.718l-0.9,0.852
	c-0.556,0.526-1.111,1.053-1.666,1.581l-0.88,0.838c-0.724,0.691-1.446,1.383-2.167,2.076l-0.568,0.546
	c-0.753,0.724-1.504,1.451-2.255,2.178l-0.715,0.695c-0.583,0.567-1.165,1.135-1.747,1.703l-0.918,0.898
	c-0.607,0.595-1.212,1.191-1.818,1.788l-0.589,0.581c-1.046,1.035-2.089,2.072-3.131,3.112l-0.705,0.706
	c-1.009,1.01-2.015,2.022-3.018,3.036l-0.642,0.65c-0.97,0.984-1.94,1.97-2.906,2.959l-0.324,0.33
	c-1.024,1.049-2.045,2.102-3.064,3.157l-0.666,0.69c-0.991,1.027-1.979,2.057-2.964,3.09l-0.695,0.73
	c-1.006,1.056-2.009,2.113-3.008,3.174l-0.355,0.378c-0.955,1.014-1.906,2.031-2.856,3.05l-0.521,0.558
	c-0.999,1.074-1.995,2.15-2.988,3.229l-0.605,0.658c-0.998,1.086-1.993,2.174-2.985,3.265l-0.452,0.498
	c-0.986,1.086-1.969,2.174-2.949,3.265l-0.206,0.229c-0.979,1.091-1.954,2.184-2.928,3.28l-0.718,0.809
	c-0.926,1.045-1.851,2.092-2.772,3.142l-0.881,1.006c-0.48,0.549-0.959,1.098-1.438,1.648l-0.817,0.94
	c-0.545,0.628-1.089,1.257-1.632,1.887l-0.66,0.764c-0.723,0.84-1.444,1.682-2.164,2.525l-0.742,0.871
	c-0.516,0.606-1.03,1.211-1.544,1.818l-0.818,0.968c-0.499,0.592-0.998,1.184-1.496,1.778l-0.761,0.906
	c-0.641,0.765-1.279,1.531-1.917,2.299l-0.67,0.808c-0.569,0.687-1.138,1.375-1.705,2.063l-1.012,1.232
	c-0.401,0.487-0.8,0.976-1.2,1.465l-0.895,1.097c-0.868,1.067-1.735,2.135-2.598,3.206l-0.699,0.869
	c-1.869,2.325-3.727,4.659-5.571,7.004l-0.562,0.714c-0.906,1.155-1.811,2.312-2.711,3.471l-0.552,0.712
	c-0.509,0.656-1.015,1.312-1.522,1.969l-0.742,0.963c-0.552,0.719-1.103,1.439-1.653,2.159l-0.451,0.591
	c-0.687,0.902-1.372,1.805-2.055,2.709l-0.677,0.898c-0.464,0.617-0.928,1.233-1.391,1.851l-0.727,0.972
	c-0.848,1.135-1.693,2.271-2.534,3.41l-0.756,1.026c-0.473,0.641-0.944,1.283-1.414,1.925l-0.814,1.112
	c-0.542,0.742-1.083,1.486-1.622,2.23l-0.896,1.238c-0.567,0.785-1.133,1.57-1.696,2.356l-0.761,1.063
	c-0.474,0.663-0.947,1.328-1.419,1.993l-0.777,1.093c-0.667,0.942-1.333,1.887-1.997,2.832l-0.582,0.831
	c-0.519,0.741-1.037,1.483-1.554,2.227l-0.742,1.068c-0.529,0.763-1.057,1.527-1.583,2.292l-0.51,0.74
	c-0.672,0.978-1.342,1.959-2.009,2.94l-0.65,0.957c-0.496,0.731-0.992,1.464-1.486,2.197l-0.658,0.975
	c-0.669,0.995-1.336,1.99-2,2.988l-0.384,0.579c-0.545,0.82-1.09,1.641-1.631,2.464l-0.719,1.091
	c-0.498,0.758-0.995,1.516-1.491,2.275l-0.541,0.829c-0.647,0.993-1.293,1.988-1.935,2.984l-0.646,1.005
	c-0.443,0.688-0.885,1.376-1.325,2.065l-0.776,1.215c-0.586,0.919-1.17,1.84-1.752,2.761l-0.394,0.624
	c-0.558,0.885-1.115,1.773-1.67,2.66l-0.639,1.024c-0.751,1.205-1.5,2.412-2.245,3.62l-0.432,0.703
	c-0.687,1.117-1.371,2.235-2.052,3.355l-0.461,0.758c-0.563,0.928-1.127,1.859-1.687,2.79l-0.743,1.24
	c-0.346,0.577-0.692,1.154-1.037,1.732l-0.795,1.338c-0.34,0.572-0.679,1.144-1.017,1.718l-0.755,1.279
	c-0.404,0.686-0.806,1.374-1.208,2.062l-0.518,0.886c-0.714,1.226-1.425,2.454-2.133,3.683l-0.746,1.296l-0.527,0.922
	c-0.345,0.602-0.689,1.205-1.032,1.808l-0.433,0.764c-1.724,3.036-3.429,6.085-5.115,9.144l-0.495,0.898
	c-0.319,0.581-0.638,1.163-0.956,1.744l-0.545,0.998c-0.331,0.608-0.662,1.216-0.991,1.825l-0.49,0.904
	c-0.329,0.61-0.658,1.221-0.986,1.833l-0.505,0.941c-0.339,0.634-0.678,1.268-1.015,1.902l-0.392,0.739
	c-0.356,0.67-0.711,1.341-1.065,2.012l-0.376,0.714c-0.363,0.69-0.724,1.379-1.086,2.069l-0.164,0.315
	c-1.321,2.529-2.629,5.066-3.925,7.61l-0.076,0.152c-0.353,0.694-0.705,1.39-1.058,2.085l-0.401,0.794
	c-0.327,0.65-0.654,1.301-0.98,1.951l-0.424,0.848c-0.309,0.618-0.616,1.236-0.924,1.855l-0.528,1.065
	c-0.295,0.596-0.589,1.192-0.882,1.788l-0.452,0.919c-0.321,0.654-0.641,1.308-0.96,1.963l-0.346,0.713
	c-0.35,0.72-0.699,1.44-1.048,2.161l-0.107,0.224c-1.631,3.381-3.238,6.776-4.824,10.182l-0.317,0.68
	c-0.3,0.645-0.598,1.291-0.897,1.937l-0.458,0.994c-0.282,0.613-0.563,1.227-0.844,1.841l-0.478,1.047
	c-0.268,0.589-0.536,1.179-0.803,1.769l-0.527,1.166c-0.265,0.59-0.531,1.179-0.795,1.769l-0.444,0.994
	c-0.29,0.651-0.58,1.301-0.87,1.952l-0.281,0.635c-1.511,3.415-3,6.842-4.468,10.281l-0.156,0.364
	c-0.301,0.708-0.601,1.416-0.901,2.124l-0.368,0.87c-0.266,0.63-0.529,1.26-0.793,1.89l-0.462,1.106
	c-0.245,0.589-0.49,1.178-0.735,1.768l-0.483,1.167c-0.251,0.61-0.502,1.22-0.752,1.83l-0.411,1.006
	c-0.268,0.654-0.535,1.309-0.8,1.964l-0.358,0.885c-0.275,0.682-0.551,1.365-0.825,2.049l-0.21,0.525
	c-0.973,2.43-1.935,4.865-2.885,7.306l-0.312,0.799c-0.269,0.693-0.536,1.386-0.804,2.08l-0.332,0.863
	c-0.252,0.655-0.503,1.312-0.753,1.969l-0.401,1.053c-0.238,0.626-0.475,1.253-0.711,1.88l-0.411,1.093
	c-0.242,0.645-0.483,1.29-0.723,1.935l-0.362,0.973c-0.246,0.664-0.492,1.328-0.737,1.993l-0.4,1.091
	c-0.224,0.611-0.448,1.22-0.67,1.831l-0.381,1.049c-0.867,2.394-1.725,4.791-2.572,7.195l-0.209,0.591
	c-0.252,0.718-0.503,1.438-0.754,2.157l-0.29,0.832c-0.241,0.695-0.481,1.392-0.721,2.088l-0.33,0.96
	c-0.215,0.625-0.428,1.249-0.641,1.874l-0.41,1.208c-0.216,0.637-0.43,1.274-0.645,1.911l-0.347,1.037
	c-0.223,0.668-0.447,1.336-0.668,2.004l-0.29,0.879c-0.246,0.745-0.492,1.49-0.737,2.236l-0.134,0.41
	c-1.143,3.496-2.264,7.003-3.362,10.519l-0.293,0.937c-0.201,0.646-0.401,1.294-0.601,1.941l-0.36,1.172
	c-0.196,0.637-0.391,1.275-0.585,1.913l-0.324,1.067c-0.217,0.714-0.431,1.428-0.645,2.143l-0.239,0.797
	c-0.221,0.738-0.441,1.476-0.659,2.215l-0.262,0.888c-0.21,0.712-0.42,1.425-0.627,2.138l-0.262,0.898
	c-0.215,0.741-0.43,1.483-0.644,2.225l-0.06,0.207c-0.77,2.681-1.527,5.368-2.271,8.06l-0.193,0.696
	c-0.208,0.757-0.416,1.515-0.622,2.273l-0.217,0.793c-0.193,0.711-0.386,1.424-0.577,2.136l-0.273,1.018
	c-0.184,0.687-0.367,1.372-0.548,2.059l-0.272,1.029c-0.18,0.686-0.361,1.372-0.539,2.059l-0.269,1.039
	c-0.186,0.716-0.371,1.431-0.555,2.148l-0.176,0.689c-0.21,0.821-0.419,1.642-0.627,2.464l-0.034,0.137
	c-0.738,2.925-1.461,5.856-2.168,8.793l-0.014,0.057c-0.188,0.781-0.373,1.562-0.559,2.344l-0.201,0.844
	c-0.157,0.663-0.312,1.326-0.468,1.989l-0.29,1.244c-0.151,0.649-0.3,1.297-0.45,1.946l-0.26,1.133
	c-0.159,0.694-0.316,1.388-0.473,2.083l-0.232,1.034c-0.153,0.68-0.305,1.36-0.456,2.041l-0.269,1.221
	c-0.144,0.655-0.289,1.31-0.431,1.965l-0.222,1.024c-0.588,2.717-1.164,5.439-1.727,8.166l-0.017,0.082
	c-0.156,0.758-0.31,1.518-0.465,2.277l-0.185,0.909c-0.146,0.72-0.289,1.441-0.433,2.161l-0.206,1.034
	c-0.136,0.69-0.273,1.381-0.407,2.072l-0.217,1.108c-0.138,0.711-0.274,1.422-0.41,2.133l-0.192,1.002
	c-0.136,0.714-0.271,1.429-0.406,2.145l-0.202,1.087c-0.13,0.696-0.259,1.391-0.387,2.088l-0.201,1.106
	c-0.128,0.701-0.256,1.402-0.381,2.104l-0.157,0.882c-0.45,2.518-0.888,5.039-1.315,7.565l-0.163,0.959
	c-0.12,0.713-0.238,1.426-0.355,2.139l-0.178,1.072c-0.113,0.692-0.225,1.383-0.337,2.075l-0.192,1.196
	c-0.104,0.653-0.208,1.306-0.311,1.959l-0.204,1.298c-0.102,0.66-0.204,1.318-0.306,1.978l-0.184,1.207
	c-0.103,0.677-0.206,1.355-0.307,2.033l-0.178,1.198c-0.102,0.689-0.204,1.378-0.304,2.068l-0.126,0.875
	c-0.527,3.643-1.03,7.294-1.51,10.953l-0.121,0.919c-0.088,0.675-0.174,1.352-0.26,2.028l-0.166,1.298
	c-0.084,0.67-0.168,1.341-0.25,2.01l-0.153,1.241c-0.079,0.646-0.157,1.292-0.234,1.938c-0.057,0.473-0.113,0.945-0.169,1.418
	c-0.075,0.64-0.151,1.281-0.225,1.921l-0.133,1.159c-0.085,0.742-0.17,1.485-0.253,2.228l-0.072,0.653
	c-0.096,0.859-0.191,1.719-0.283,2.579l-0.006,0.058c-0.19,1.76-0.373,3.522-0.552,5.285l-0.102,0.996
	c-0.069,0.691-0.136,1.384-0.204,2.076l-0.115,1.171c-0.069,0.725-0.137,1.45-0.206,2.175l-0.103,1.1
	c-0.063,0.684-0.125,1.367-0.187,2.052c-0.041,0.458-0.082,0.914-0.123,1.372c-0.055,0.623-0.11,1.247-0.163,1.871
	c-0.04,0.465-0.079,0.931-0.119,1.396c-0.056,0.669-0.112,1.339-0.168,2.008l-0.1,1.239c-0.055,0.679-0.11,1.358-0.163,2.037
	l-0.1,1.302c-0.052,0.68-0.105,1.36-0.155,2.041l-0.063,0.858c-0.186,2.534-0.36,5.072-0.524,7.612l-0.083,1.293
	c-0.042,0.675-0.083,1.35-0.124,2.025l-0.077,1.276c-0.041,0.705-0.081,1.412-0.122,2.118l-0.067,1.195
	c-0.036,0.669-0.073,1.337-0.108,2.006c-0.024,0.474-0.049,0.95-0.074,1.425c-0.034,0.664-0.068,1.328-0.1,1.993l-0.059,1.227
	c-0.033,0.698-0.066,1.396-0.097,2.094l-0.054,1.243c-0.031,0.714-0.062,1.428-0.092,2.142l-0.035,0.883
	c-0.104,2.612-0.196,5.227-0.277,7.845l-0.034,1.079c-0.02,0.697-0.039,1.396-0.058,2.094l-0.034,1.24
	c-0.018,0.693-0.034,1.385-0.051,2.079c-0.01,0.45-0.02,0.899-0.031,1.349c-0.013,0.627-0.026,1.254-0.038,1.88
	c-0.01,0.497-0.018,0.994-0.028,1.492c-0.012,0.671-0.023,1.342-0.033,2.013l-0.018,1.288c-0.01,0.68-0.02,1.361-0.027,2.042
	l-0.014,1.346c-0.007,0.68-0.013,1.36-0.018,2.04l-0.008,1.284c-0.003,0.71-0.008,1.419-0.011,2.13l-0.002,0.472
	c-0.003,0.923-0.005,1.847-0.005,2.771c0,1.7,0.007,3.4,0.016,5.097v0l0.007,1.025v0.001c0.01,1.411,0.023,2.821,0.04,4.231v0.002
	l0.011,0.966v0.001c0.045,3.396,0.109,6.786,0.194,10.172l0.026,1.048c0.036,1.361,0.075,2.721,0.117,4.08l0.035,1.16
	c0.107,3.321,0.232,6.636,0.377,9.948l0.06,1.314c0.057,1.266,0.118,2.53,0.18,3.794l0.063,1.272c0.17,3.308,0.358,6.61,0.565,9.909
	l0.077,1.189c0.084,1.305,0.171,2.609,0.26,3.912l0.082,1.186c0.232,3.308,0.484,6.61,0.754,9.908l0.093,1.12
	c0.11,1.32,0.223,2.639,0.339,3.957l0.099,1.12c0.295,3.305,0.609,6.604,0.942,9.898l0.108,1.061
	c0.137,1.33,0.275,2.658,0.418,3.986l0.12,1.123c0.355,3.277,0.728,6.548,1.122,9.813l0.13,1.072
	c0.163,1.341,0.329,2.683,0.498,4.023l0.127,1c0.418,3.282,0.856,6.558,1.312,9.828l0.146,1.037c0.187,1.33,0.378,2.659,0.571,3.987
	l0.149,1.02c0.479,3.268,0.978,6.531,1.495,9.787l0.157,0.98c0.215,1.339,0.432,2.676,0.652,4.012l0.162,0.98
	c5.18,31.183,12.062,61.79,20.547,91.724l0.318,1.116c0.353,1.24,0.709,2.479,1.069,3.718l0.283,0.977
	c0.898,3.083,1.813,6.16,2.745,9.228l0.339,1.111c0.371,1.216,0.745,2.43,1.121,3.643l0.321,1.035
	c0.954,3.064,1.926,6.12,2.914,9.169l0.338,1.039c0.39,1.198,0.783,2.396,1.178,3.592l0.367,1.111
	c2.111,6.356,4.295,12.679,6.551,18.967l0.169,0.471c0.556,1.547,1.117,3.093,1.681,4.635l0.046,0.125
	c0.576,1.572,1.156,3.141,1.741,4.709l0.038,0.101c0.572,1.535,1.15,3.068,1.732,4.599l0.195,0.512
	c2.367,6.219,4.804,12.401,7.312,18.548l0.445,1.085c0.487,1.19,0.977,2.378,1.469,3.565l0.355,0.855
	c4.548,10.928,9.319,21.741,14.306,32.432l0.362,0.773c0.57,1.221,1.145,2.439,1.721,3.657l0.392,0.829
	c2.842,5.985,5.752,11.931,8.729,17.837l0.426,0.845c0.596,1.18,1.196,2.359,1.798,3.537l0.432,0.846
	c1.445,2.818,2.905,5.626,4.38,8.425l0.516,0.976c0.585,1.106,1.171,2.21,1.761,3.313l0.504,0.943
	c30.581,57.054,67.499,110.203,109.813,158.506l0.606,0.689c0.861,0.981,1.725,1.961,2.591,2.938l0.643,0.726
	c2.083,2.345,4.179,4.679,6.287,7.002l0.716,0.786c0.859,0.943,1.719,1.884,2.582,2.823l0.636,0.693
	c4.425,4.807,8.905,9.563,13.439,14.266l0.766,0.792c0.839,0.869,1.68,1.735,2.522,2.599l0.851,0.873
	c2.265,2.317,4.543,4.623,6.834,6.914c1.192,1.192,2.387,2.381,3.586,3.565c1.248,1.234,2.501,2.464,3.757,3.69
	c2.342,2.286,4.697,4.557,7.065,6.816c7.557,7.209,15.247,14.279,23.066,21.206c2.227,1.973,4.463,3.933,6.71,5.883
	c148.805,129.1,343.023,207.233,555.49,207.233c338.474,0,630.634-198.288,766.657-485.038c0.735-1.55,1.466-3.102,2.192-4.658
	c8.713-18.661,16.767-37.693,24.131-57.064c1.841-4.842,3.64-9.707,5.394-14.591c7.603-21.167,14.388-42.725,20.316-64.634
	c0.912-3.371,1.804-6.75,2.676-10.137c1.743-6.774,3.405-13.582,4.983-20.42c0.395-1.709,0.784-3.421,1.168-5.135
	c0.769-3.427,1.517-6.862,2.244-10.305c1.09-5.164,2.134-10.345,3.131-15.544c1.328-6.931,2.571-13.893,3.729-20.882
	c0.289-1.748,0.574-3.497,0.853-5.248c0.558-3.502,1.094-7.012,1.609-10.528c1.03-7.033,1.973-14.094,2.828-21.181
	c0.428-3.544,0.834-7.094,1.218-10.652c1.92-17.786,3.29-35.736,4.093-53.834c0.16-3.619,0.298-7.245,0.413-10.877
	c0.287-9.078,0.432-18.192,0.432-27.34v-0.173l0,0.001C1907.985,1061.599,1907.238,1062.707,1906.488,1063.813z"/>
<path style="fill:#251C34;" d="M1053.454,612.368c-19.084,15.735-37.676,21.867-64.775,26.287
	c80.837,22.454,102.802,122.939,111.911,149.273c9.109-26.335,31.075-126.819,111.912-149.273
	c-27.099-4.419-45.691-10.551-64.776-26.287c-17.265-14.236-38.081-46.601-47.137-94.685
	C1091.535,565.767,1070.719,598.132,1053.454,612.368z"/>
<path style="fill:#251C34;" d="M1312.301,921.785c3.713-10.734,12.666-51.692,45.616-60.844
	c-11.046-1.802-18.624-4.301-26.402-10.715c-7.037-5.803-15.522-18.995-19.213-38.594c-3.691,19.599-12.176,32.791-19.213,38.594
	c-7.779,6.414-15.357,8.913-26.402,10.715C1299.635,870.092,1308.588,911.05,1312.301,921.785z"/>
<path style="fill:#F5E845;" d="M1073.164,1069.457c5.153-14.897,17.578-71.736,63.304-84.437
	c-15.329-2.5-25.845-5.969-36.641-14.869c-9.766-8.053-21.541-26.361-26.663-53.559c-5.123,27.199-16.897,45.507-26.663,53.559
	c-10.795,8.9-21.311,12.369-36.641,14.869C1055.587,997.72,1068.011,1054.56,1073.164,1069.457z"/>
<path style="fill:#251C34;" d="M703.415,1485.087c-2.712,14.399-8.946,24.092-14.116,28.355c-5.715,4.712-11.283,6.549-19.398,7.872
	c24.208,6.724,30.786,36.816,33.514,44.702c2.727-7.886,9.306-37.978,33.513-44.702c-8.115-1.323-13.683-3.16-19.398-7.872
	C712.36,1509.178,706.126,1499.486,703.415,1485.087z"/>
<path style="fill:#251C34;" d="M1635.675,1373.517c1.402-4.053,4.782-19.517,17.222-22.972c-4.17-0.681-7.031-1.624-9.968-4.046
	c-2.657-2.191-5.86-7.171-7.254-14.571c-1.393,7.4-4.597,12.38-7.254,14.571c-2.937,2.422-5.798,3.365-9.968,4.046
	C1630.893,1354,1634.273,1369.464,1635.675,1373.517z"/>
<path style="fill:#251C34;" d="M510.085,780.33c5.785-16.727,18.136-71.308,55.929-101.3c9.229-7.323,19.973-13.181,32.51-16.663
	c-9.188-1.498-17.137-3.246-24.411-5.735c-9.681-3.313-18.167-7.938-26.778-15.039c-13.643-11.25-30.093-36.826-37.25-74.825
	c-7.157,37.998-23.607,63.575-37.251,74.825c-14.003,11.546-27.672,16.55-46.697,20.002c-1.465,0.265-2.961,0.522-4.492,0.772
	c1.214,0.337,2.407,0.699,3.588,1.08C486.181,683.109,503.022,759.914,510.085,780.33z"/>
<path style="fill:#251C34;" d="M1503.96,1514.036c3.96-11.447,13.508-55.127,48.647-64.887c-11.78-1.921-19.861-4.587-28.157-11.427
	c-7.505-6.188-16.553-20.256-20.49-41.158c-3.936,20.901-12.984,34.97-20.49,41.158c-8.295,6.84-16.377,9.506-28.157,11.427
	C1490.453,1458.909,1500,1502.589,1503.96,1514.036z"/>
<path style="fill:#F5E845;" d="M636.453,782.226c-2.712,14.4-8.945,24.092-14.116,28.355c-5.715,4.713-11.282,6.549-19.397,7.872
	c24.208,6.724,30.785,36.816,33.513,44.702c2.728-7.886,9.306-37.978,33.514-44.702c-8.116-1.323-13.683-3.16-19.398-7.872
	C645.399,806.318,639.165,796.625,636.453,782.226z"/>
<path style="fill:#F5E845;" d="M887.115,1515.13c10.994-26.139,30.086-56.621,64.884-66.286
	c-18.824-3.07-31.737-7.329-44.993-18.259c-11.992-9.888-26.451-32.368-32.741-65.767c-6.291,33.399-20.749,55.879-32.741,65.767
	c-13.256,10.93-26.169,15.189-44.992,18.259c25.239,7.01,42.215,24.974,53.832,44.287c14.227,23.651,20.418,49.328,23.901,59.397
	C876.671,1545.572,880.369,1531.168,887.115,1515.13z"/>
<path style="fill:#F5E845;" d="M1582.393,1598.612c-2.034,10.799-6.709,18.069-10.587,21.266c-4.286,3.534-8.461,4.912-14.548,5.904
	c7.858,2.183,13.237,7.648,16.979,13.625c4.905,7.834,6.996,16.547,8.156,19.902c2.046-5.915,6.979-28.483,25.135-33.527
	c-4.175-0.68-7.451-1.543-10.48-3.157c-1.387-0.739-2.723-1.636-4.069-2.746C1589.102,1616.681,1584.427,1609.411,1582.393,1598.612
	z"/>
<ellipse transform="matrix(0.7071 -0.7071 0.7071 0.7071 -502.3867 556.0658)" style="fill:#251C34;" cx="420.037" cy="884.467" rx="21.228" ry="21.228"/>
<path style="fill:#251C34;" d="M785.665,1042.062c-11.725,0-21.229,9.505-21.229,21.228c0,11.725,9.505,21.229,21.229,21.229
	c11.723,0,21.228-9.504,21.228-21.229C806.893,1051.566,797.388,1042.062,785.665,1042.062z"/>
<path style="fill:#251C34;" d="M999.876,819.573c-7.152,0-12.95,5.798-12.95,12.95c0,7.152,5.798,12.951,12.95,12.951
	c7.152,0,12.95-5.798,12.95-12.951C1012.826,825.37,1007.028,819.573,999.876,819.573z"/>
<path style="fill:#251C34;" d="M1220.666,586.681c5.276,0,9.553-4.278,9.553-9.554c0-5.276-4.277-9.553-9.553-9.553
	c-5.276,0-9.553,4.277-9.553,9.553C1211.113,582.403,1215.39,586.681,1220.666,586.681z"/>
<path style="fill:#251C34;" d="M1447.386,1600.592c-11.724,0-21.228,9.504-21.228,21.228c0,11.724,9.504,21.229,21.228,21.229
	c11.724,0,21.228-9.505,21.228-21.229C1468.614,1610.096,1459.11,1600.592,1447.386,1600.592z"/>
<path style="fill:#251C34;" d="M621.924,506.071c5.862,0,10.614-4.752,10.614-10.615c0-5.862-4.752-10.614-10.614-10.614
	c-5.862,0-10.614,4.752-10.614,10.614C611.31,501.319,616.062,506.071,621.924,506.071z"/>
<path style="fill:#251C34;" d="M724.003,1263.175c-5.863,0-10.614,4.752-10.614,10.614c0,5.863,4.752,10.615,10.614,10.615
	c5.862,0,10.614-4.752,10.614-10.615C734.617,1267.927,729.865,1263.175,724.003,1263.175z"/>
<path style="fill:#251C34;" d="M1833.61,1259.16c0-2.219-0.682-4.279-1.846-5.982c-1.912-2.796-5.126-4.632-8.768-4.632
	c-5.862,0-10.614,4.752-10.614,10.614c0,5.499,4.182,10.022,9.539,10.561l1.075,0.054
	C1828.858,1269.775,1833.61,1265.022,1833.61,1259.16z"/>
<path style="fill:#251C34;" d="M1007.943,1377.07c2.697,0,4.882-2.186,4.882-4.882c0-2.697-2.186-4.882-4.882-4.882
	c-2.696,0-4.882,2.186-4.882,4.882C1003.061,1374.884,1005.247,1377.07,1007.943,1377.07z"/>
<path style="fill:#251C34;" d="M1193.28,1136.282c0,4.361,3.535,7.896,7.896,7.896c4.36,0,7.896-3.535,7.896-7.896
	c0-4.36-3.535-7.895-7.896-7.895C1196.815,1128.386,1193.28,1131.921,1193.28,1136.282z"/>
<ellipse transform="matrix(0.9732 -0.2298 0.2298 0.9732 -148.5623 310.8932)" style="fill:#251C34;" cx="1260.79" cy="793.419" rx="7.896" ry="7.896"/>
<path style="fill:#F5E845;" d="M700.347,1721.258c-6.961,0-12.604,5.643-12.604,12.604c0,6.962,5.643,12.605,12.604,12.605
	c6.962,0,12.604-5.643,12.604-12.605C712.951,1726.9,707.309,1721.258,700.347,1721.258z"/>
<path style="fill:#251C34;" d="M439.834,1460.376c-4.03,0-7.297,3.267-7.297,7.297c0,4.031,3.267,7.297,7.297,7.297
	c4.031,0,7.297-3.267,7.297-7.297C447.131,1463.643,443.865,1460.376,439.834,1460.376z"/>
<path style="fill:#251C34;" d="M336.868,1248.806c-19.098-52.464-32.297-108.016-39.1-164.577
	c-4.684-38.93-6.349-78.259-10.928-117.205c-0.809-6.874-3.23-15.516-8.9-15.816c-5.02-0.264-8.014,6.439-9.71,12.172
	c-14.146,47.81-20.955,100.601-19.259,153.018c2.05,63.313,16.509,126.079,45.434,178.86c4.804,8.766,10.228,17.458,17.699,22.738
	c18.849,13.32,35.688-6.148,34.895-29.783C346.536,1274.43,341.485,1261.49,336.868,1248.806z"/>
<path style="fill:#243888;" d="M1189.72,1683.634c-15.771-5.083-32.479-4.549-48.72-4.409c-67.175,0.579-135.41-6.88-202.149-22.099
	c-45.936-10.475-91.078-24.583-136.989-35.183c-8.104-1.871-18.871-2.608-21.546,3.786c-2.369,5.662,3.974,11.834,9.755,16.119
	c48.211,35.734,105.078,65.064,165.028,84.465c72.412,23.435,149.321,32.384,220.906,20.639c11.89-1.951,23.951-4.644,32.999-11.08
	C1231.829,1719.635,1216.763,1692.35,1189.72,1683.634z"/>
<path style="fill:#82A8D9;" d="M881.704,334.234c-42.162,23.65-81.863,56-114.706,94.105
	c-39.671,46.026-69.333,100.448-81.237,158.077c-1.978,9.572-3.424,19.529-1.055,28.533c5.978,22.716,31.762,20.924,46.549,3.723
	c8.624-10.032,13.129-22.716,17.805-34.913c19.34-50.452,45.282-98.902,76.854-143.539c21.73-30.722,46.068-59.59,67.889-90.251
	c3.851-5.413,7.6-13.21,3.386-17.433C893.458,328.798,886.759,331.398,881.704,334.234z"/>
<path style="fill:#82A8D9;" d="M1027.476,1509.034c35.863,21.568,77.197,37.467,119.901,45.655
	c51.583,9.89,105.164,8.532,153.521-7.673c8.031-2.692,16.125-5.953,21.864-11.687c14.476-14.464,2.052-33.199-17.209-36.866
	c-11.233-2.139-22.687,0.001-33.849,1.799c-46.167,7.435-93.669,8.998-140.73,4.629c-32.39-3.006-64.509-8.798-96.892-11.901
	c-5.716-0.547-13.178,0.026-14.536,5.064C1018.346,1502.516,1023.175,1506.448,1027.476,1509.034z"/>
</svg>
