<svg width="98" height="90" viewBox="0 0 98 90" fill="none" xmlns="http://www.w3.org/2000/svg">
<g filter="url(#filter0_i_4103_1358)">
<path d="M45.6538 21.6352C45.6538 19.6692 47.2478 18.0752 49.2138 18.0752C51.1798 18.0752 52.7738 19.6692 52.7738 21.6352C52.7738 23.6012 51.1798 25.1952 49.2138 25.1952C47.2478 25.1962 45.6538 23.6022 45.6538 21.6352Z" fill="url(#paint0_linear_4103_1358)"/>
<path d="M46.6948 10.5161C46.6948 9.12409 47.8228 7.99609 49.2148 7.99609C50.6068 7.99609 51.7348 9.12409 51.7348 10.5161C51.7348 11.9081 50.6068 13.0361 49.2148 13.0361C47.8228 13.0361 46.6948 11.9081 46.6948 10.5161Z" fill="url(#paint1_linear_4103_1358)"/>
<path d="M47.7358 1.479C47.7358 0.662004 48.3978 0 49.2148 0C50.0318 0 50.6938 0.662004 50.6938 1.479C50.6938 2.296 50.0318 2.958 49.2148 2.958C48.3978 2.958 47.7358 2.295 47.7358 1.479Z" fill="url(#paint2_linear_4103_1358)"/>
<path d="M27.2979 31.9837C25.9079 30.5937 25.9079 28.3388 27.2979 26.9488C28.6879 25.5588 30.9429 25.5588 32.3329 26.9488C33.7229 28.3388 33.7229 30.5937 32.3329 31.9837C30.9419 33.3747 28.6879 33.3747 27.2979 31.9837Z" fill="url(#paint3_linear_4103_1358)"/>
<path d="M20.1711 23.386C19.1871 22.402 19.1871 20.807 20.1711 19.823C21.1551 18.839 22.7501 18.839 23.7341 19.823C24.7181 20.807 24.7181 22.402 23.7341 23.386C22.7511 24.37 21.1551 24.37 20.1711 23.386Z" fill="url(#paint4_linear_4103_1358)"/>
<path d="M14.517 16.2589C13.939 15.6819 13.939 14.7449 14.517 14.1679C15.094 13.5899 16.031 13.5899 16.608 14.1679C17.185 14.7449 17.185 15.6819 16.608 16.2589C16.031 16.8369 15.094 16.8369 14.517 16.2589Z" fill="url(#paint5_linear_4103_1358)"/>
<path d="M21.6362 52.2811C19.6702 52.2811 18.0762 50.6871 18.0762 48.7211C18.0762 46.7551 19.6702 45.1611 21.6362 45.1611C23.6022 45.1611 25.1962 46.7551 25.1962 48.7211C25.1962 50.6871 23.6022 52.2811 21.6362 52.2811Z" fill="url(#paint6_linear_4103_1358)"/>
<path d="M10.5161 51.2412C9.12507 51.2412 7.99707 50.1132 7.99707 48.7212C7.99707 47.3302 9.12507 46.2012 10.5161 46.2012C11.9081 46.2012 13.0361 47.3292 13.0361 48.7212C13.0361 50.1132 11.9081 51.2412 10.5161 51.2412Z" fill="url(#paint7_linear_4103_1358)"/>
<path d="M1.479 50.2002C2.29583 50.2002 2.958 49.538 2.958 48.7212C2.958 47.9044 2.29583 47.2422 1.479 47.2422C0.662175 47.2422 0 47.9044 0 48.7212C0 49.538 0.662175 50.2002 1.479 50.2002Z" fill="url(#paint8_linear_4103_1358)"/>
<path d="M31.9838 70.6381C30.5938 72.0281 28.3388 72.0281 26.9488 70.6381C25.5588 69.2481 25.5588 66.993 26.9488 65.603C28.3388 64.213 30.5938 64.213 31.9838 65.603C33.3748 66.993 33.3748 69.2471 31.9838 70.6381Z" fill="url(#paint9_linear_4103_1358)"/>
<path d="M23.386 77.7639C22.402 78.7479 20.807 78.7479 19.823 77.7639C18.839 76.7799 18.839 75.1849 19.823 74.2009C20.807 73.2169 22.402 73.2169 23.386 74.2009C24.37 75.1849 24.37 76.7799 23.386 77.7639Z" fill="url(#paint10_linear_4103_1358)"/>
<path d="M16.2589 83.4193C15.6819 83.9973 14.7449 83.9973 14.1679 83.4193C13.5899 82.8413 13.5899 81.9053 14.1679 81.3283C14.7449 80.7513 15.6819 80.7513 16.2589 81.3283C16.8369 81.9053 16.8369 82.8413 16.2589 83.4193Z" fill="url(#paint11_linear_4103_1358)"/>
<path d="M52.2821 76.3002C52.2821 78.2662 50.6881 79.8602 48.7221 79.8602C46.7561 79.8602 45.1621 78.2662 45.1621 76.3002C45.1621 74.3342 46.7561 72.7402 48.7221 72.7402C50.6881 72.7402 52.2821 74.3342 52.2821 76.3002Z" fill="url(#paint12_linear_4103_1358)"/>
<path d="M48.7212 89.9394C50.1129 89.9394 51.2412 88.8112 51.2412 87.4194C51.2412 86.0277 50.1129 84.8994 48.7212 84.8994C47.3294 84.8994 46.2012 86.0277 46.2012 87.4194C46.2012 88.8112 47.3294 89.9394 48.7212 89.9394Z" fill="url(#paint13_linear_4103_1358)"/>
<path d="M70.6381 65.9507C72.0281 67.3417 72.0281 69.5957 70.6381 70.9857C69.2481 72.3757 66.993 72.3757 65.603 70.9857C64.213 69.5957 64.213 67.3407 65.603 65.9507C66.993 64.5607 69.2471 64.5607 70.6381 65.9507Z" fill="url(#paint14_linear_4103_1358)"/>
<path d="M77.7639 74.5488C78.7479 75.5328 78.7479 77.1278 77.7639 78.1118C76.7799 79.0958 75.1849 79.0958 74.2009 78.1118C73.2169 77.1278 73.2169 75.5328 74.2009 74.5488C75.1849 73.5658 76.7799 73.5658 77.7639 74.5488Z" fill="url(#paint15_linear_4103_1358)"/>
<path d="M83.4193 81.6757C83.9973 82.2537 83.9973 83.1897 83.4193 83.7677C82.8423 84.3457 81.9053 84.3457 81.3273 83.7677C80.7503 83.1897 80.7503 82.2537 81.3273 81.6757C81.9053 81.0977 82.8423 81.0977 83.4193 81.6757Z" fill="url(#paint16_linear_4103_1358)"/>
<path d="M76.3002 45.6543C78.2662 45.6543 79.8602 47.2483 79.8602 49.2143C79.8602 51.1803 78.2662 52.7743 76.3002 52.7743C74.3342 52.7743 72.7402 51.1803 72.7402 49.2143C72.7402 47.2483 74.3342 45.6543 76.3002 45.6543Z" fill="url(#paint17_linear_4103_1358)"/>
<path d="M87.4194 46.6953C88.8114 46.6953 89.9394 47.8233 89.9394 49.2153C89.9394 50.6073 88.8114 51.7353 87.4194 51.7353C86.0284 51.7353 84.8994 50.6073 84.8994 49.2153C84.9004 47.8233 86.0284 46.6953 87.4194 46.6953Z" fill="url(#paint18_linear_4103_1358)"/>
<path d="M96.457 47.7354C97.274 47.7354 97.936 48.3974 97.936 49.2144C97.936 50.0314 97.274 50.6934 96.457 50.6934C95.64 50.6934 94.978 50.0314 94.978 49.2144C94.978 48.3974 95.64 47.7354 96.457 47.7354Z" fill="url(#paint19_linear_4103_1358)"/>
<path d="M65.9512 27.2984C67.3412 25.9084 69.5962 25.9084 70.9862 27.2984C72.3762 28.6884 72.3762 30.9434 70.9862 32.3334C69.5962 33.7234 67.3412 33.7234 65.9512 32.3334C64.5612 30.9424 64.5612 28.6884 65.9512 27.2984Z" fill="url(#paint20_linear_4103_1358)"/>
<path d="M74.55 20.1716C75.534 19.1876 77.129 19.1876 78.113 20.1716C79.097 21.1556 79.097 22.7506 78.113 23.7346C77.129 24.7186 75.534 24.7186 74.55 23.7346C73.566 22.7516 73.566 21.1556 74.55 20.1716Z" fill="url(#paint21_linear_4103_1358)"/>
<path d="M81.6764 14.5175C82.2544 13.9395 83.1904 13.9395 83.7684 14.5175C84.3464 15.0945 84.3464 16.0315 83.7684 16.6085C83.1904 17.1855 82.2544 17.1855 81.6764 16.6085C81.0994 16.0305 81.0994 15.0945 81.6764 14.5175Z" fill="url(#paint22_linear_4103_1358)"/>
<path d="M41.4041 75.4406C40.6401 77.2526 38.5521 78.1027 36.7401 77.3387C34.9281 76.5747 34.0781 74.4867 34.8421 72.6747C35.6061 70.8627 37.6941 70.0127 39.5061 70.7767C41.3191 71.5407 42.1681 73.6286 41.4041 75.4406Z" fill="url(#paint23_linear_4103_1358)"/>
<path d="M36.1259 85.2819C35.5859 86.5639 34.1078 87.1649 32.8258 86.6249C31.5438 86.0849 30.9419 84.6069 31.4829 83.3249C32.0239 82.0429 33.5009 81.4409 34.7829 81.9819C36.0649 82.5229 36.6669 83.9999 36.1259 85.2819Z" fill="url(#paint24_linear_4103_1358)"/>
<path d="M62.3389 73.0344C63.0799 74.8554 62.2039 76.9334 60.3829 77.6744C58.5619 78.4154 56.4839 77.5394 55.7429 75.7184C55.0019 73.8974 55.8779 71.8204 57.6989 71.0794C59.5209 70.3374 61.5979 71.2134 62.3389 73.0344Z" fill="url(#paint25_linear_4103_1358)"/>
<path d="M65.5656 83.7255C66.0896 85.0145 65.4706 86.4845 64.1816 87.0085C62.8926 87.5335 61.4226 86.9135 60.8986 85.6245C60.3736 84.3355 60.9936 82.8655 62.2826 82.3415C63.5716 81.8175 65.0406 82.4375 65.5656 83.7255Z" fill="url(#paint26_linear_4103_1358)"/>
<path d="M75.4411 56.5306C77.2531 57.2946 78.1032 59.3826 77.3392 61.1946C76.5752 63.0066 74.4872 63.8566 72.6752 63.0926C70.8632 62.3286 70.0131 60.2406 70.7771 58.4286C71.5411 56.6166 73.6291 55.7666 75.4411 56.5306Z" fill="url(#paint27_linear_4103_1358)"/>
<path d="M85.2833 61.8086C86.5653 62.3496 87.1663 63.8266 86.6263 65.1086C86.0853 66.3906 84.6083 66.9926 83.3263 66.4516C82.0443 65.9116 81.4423 64.4336 81.9833 63.1516C82.5233 61.8696 84.0003 61.2686 85.2833 61.8086Z" fill="url(#paint28_linear_4103_1358)"/>
<path d="M73.0349 35.5965C74.8559 34.8555 76.9339 35.7305 77.6749 37.5525C78.4159 39.3735 77.5399 41.4515 75.7189 42.1925C73.8979 42.9335 71.8209 42.0585 71.0789 40.2365C70.3389 38.4145 71.2139 36.3375 73.0349 35.5965Z" fill="url(#paint29_linear_4103_1358)"/>
<path d="M83.727 32.3693C85.016 31.8443 86.486 32.4643 87.01 33.7533C87.534 35.0423 86.915 36.5123 85.626 37.0363C84.337 37.5603 82.867 36.9413 82.343 35.6523C81.818 34.3633 82.438 32.8933 83.727 32.3693Z" fill="url(#paint30_linear_4103_1358)"/>
<path d="M56.5311 22.495C57.2951 20.683 59.3831 19.833 61.1951 20.597C63.0071 21.361 63.8571 23.449 63.0931 25.261C62.3291 27.073 60.2411 27.923 58.4291 27.159C56.6171 26.394 55.7681 24.306 56.5311 22.495Z" fill="url(#paint31_linear_4103_1358)"/>
<path d="M61.8091 12.6526C62.3501 11.3706 63.8271 10.7696 65.1091 11.3096C66.3911 11.8506 66.9931 13.3276 66.4521 14.6096C65.9121 15.8916 64.4341 16.4936 63.1521 15.9526C61.8701 15.4126 61.2691 13.9346 61.8091 12.6526Z" fill="url(#paint32_linear_4103_1358)"/>
<path d="M35.597 24.8996C34.856 23.0786 35.731 21.0006 37.553 20.2596C39.374 19.5186 41.452 20.3936 42.193 22.2156C42.934 24.0366 42.058 26.1136 40.237 26.8556C38.415 27.5966 36.338 26.7216 35.597 24.8996Z" fill="url(#paint33_linear_4103_1358)"/>
<path d="M32.3699 14.2086C31.8459 12.9196 32.4649 11.4496 33.7539 10.9246C35.0429 10.4006 36.5129 11.0196 37.0369 12.3086C37.5609 13.5976 36.9419 15.0676 35.6529 15.5916C34.3639 16.1166 32.8939 15.4976 32.3699 14.2086Z" fill="url(#paint34_linear_4103_1358)"/>
<path d="M22.495 41.4041C20.683 40.6401 19.833 38.5521 20.597 36.7401C21.361 34.9281 23.449 34.0781 25.261 34.8421C27.073 35.6061 27.923 37.6941 27.159 39.5061C26.395 41.3181 24.307 42.1681 22.495 41.4041Z" fill="url(#paint35_linear_4103_1358)"/>
<path d="M12.653 36.1259C11.371 35.5859 10.769 34.1079 11.31 32.8259C11.851 31.5439 13.328 30.9419 14.61 31.4829C15.892 32.0229 16.494 33.5009 15.953 34.7829C15.413 36.0649 13.935 36.6669 12.653 36.1259Z" fill="url(#paint36_linear_4103_1358)"/>
<path d="M24.9001 62.339C23.0791 63.08 21.0011 62.204 20.2601 60.383C19.5191 58.562 20.3941 56.484 22.2161 55.743C24.0371 55.002 26.1141 55.877 26.8561 57.699C27.5971 59.52 26.7221 61.598 24.9001 62.339Z" fill="url(#paint37_linear_4103_1358)"/>
<path d="M14.2091 65.5662C12.9201 66.0902 11.4501 65.4712 10.9251 64.1822C10.4011 62.8932 11.0201 61.4232 12.3091 60.8992C13.5981 60.3752 15.0681 60.9942 15.5921 62.2832C16.1181 63.5712 15.4981 65.0412 14.2091 65.5662Z" fill="url(#paint38_linear_4103_1358)"/>
<path d="M48.9682 66.9432C39.0572 66.9432 30.9922 58.8792 30.9922 48.9672C30.9922 39.0552 39.0562 30.9912 48.9682 30.9912C58.8802 30.9912 66.9442 39.0552 66.9442 48.9672C66.9442 58.8792 58.8792 66.9432 48.9682 66.9432ZM48.9682 39.6702C43.8412 39.6702 39.6702 43.8412 39.6702 48.9682C39.6702 54.0952 43.8412 58.2662 48.9682 58.2662C54.0952 58.2662 58.2662 54.0952 58.2662 48.9682C58.2662 43.8412 54.0952 39.6702 48.9682 39.6702Z" fill="url(#paint39_linear_4103_1358)"/>
</g>
<defs>
<filter id="filter0_i_4103_1358" x="0" y="0" width="97.936" height="93.9395" filterUnits="userSpaceOnUse" color-interpolation-filters="sRGB">
<feFlood flood-opacity="0" result="BackgroundImageFix"/>
<feBlend mode="normal" in="SourceGraphic" in2="BackgroundImageFix" result="shape"/>
<feColorMatrix in="SourceAlpha" type="matrix" values="0 0 0 0 0 0 0 0 0 0 0 0 0 0 0 0 0 0 127 0" result="hardAlpha"/>
<feMorphology radius="12" operator="erode" in="SourceAlpha" result="effect1_innerShadow_4103_1358"/>
<feOffset dy="4"/>
<feGaussianBlur stdDeviation="2"/>
<feComposite in2="hardAlpha" operator="arithmetic" k2="-1" k3="1"/>
<feColorMatrix type="matrix" values="0 0 0 0 0.0098558 0 0 0 0 0.197115 0 0 0 0 0 0 0 0 0.25 0"/>
<feBlend mode="normal" in2="shape" result="effect1_innerShadow_4103_1358"/>
</filter>
<linearGradient id="paint0_linear_4103_1358" x1="49.2142" y1="-3.82279" x2="49.2142" y2="88.7569" gradientUnits="userSpaceOnUse">
<stop stop-color="#FBCB3B"/>
<stop offset="0.343" stop-color="#FBC83B"/>
<stop offset="0.5536" stop-color="#FBC03B"/>
<stop offset="0.7284" stop-color="#FBB23B"/>
<stop offset="0.8827" stop-color="#FB9D3B"/>
<stop offset="1" stop-color="#FB883B"/>
</linearGradient>
<linearGradient id="paint1_linear_4103_1358" x1="49.2142" y1="-3.82251" x2="49.2142" y2="88.7562" gradientUnits="userSpaceOnUse">
<stop stop-color="#FBCB3B"/>
<stop offset="0.343" stop-color="#FBC83B"/>
<stop offset="0.5536" stop-color="#FBC03B"/>
<stop offset="0.7284" stop-color="#FBB23B"/>
<stop offset="0.8827" stop-color="#FB9D3B"/>
<stop offset="1" stop-color="#FB883B"/>
</linearGradient>
<linearGradient id="paint2_linear_4103_1358" x1="49.2142" y1="-3.8225" x2="49.2142" y2="88.7532" gradientUnits="userSpaceOnUse">
<stop stop-color="#FBCB3B"/>
<stop offset="0.343" stop-color="#FBC83B"/>
<stop offset="0.5536" stop-color="#FBC03B"/>
<stop offset="0.7284" stop-color="#FBB23B"/>
<stop offset="0.8827" stop-color="#FB9D3B"/>
<stop offset="1" stop-color="#FB883B"/>
</linearGradient>
<linearGradient id="paint3_linear_4103_1358" x1="29.8153" y1="-3.82313" x2="29.8153" y2="88.7563" gradientUnits="userSpaceOnUse">
<stop stop-color="#FBCB3B"/>
<stop offset="0.343" stop-color="#FBC83B"/>
<stop offset="0.5536" stop-color="#FBC03B"/>
<stop offset="0.7284" stop-color="#FBB23B"/>
<stop offset="0.8827" stop-color="#FB9D3B"/>
<stop offset="1" stop-color="#FB883B"/>
</linearGradient>
<linearGradient id="paint4_linear_4103_1358" x1="21.9531" y1="-3.82265" x2="21.9531" y2="88.7561" gradientUnits="userSpaceOnUse">
<stop stop-color="#FBCB3B"/>
<stop offset="0.343" stop-color="#FBC83B"/>
<stop offset="0.5536" stop-color="#FBC03B"/>
<stop offset="0.7284" stop-color="#FBB23B"/>
<stop offset="0.8827" stop-color="#FB9D3B"/>
<stop offset="1" stop-color="#FB883B"/>
</linearGradient>
<linearGradient id="paint5_linear_4103_1358" x1="15.5624" y1="-3.82285" x2="15.5624" y2="88.7562" gradientUnits="userSpaceOnUse">
<stop stop-color="#FBCB3B"/>
<stop offset="0.343" stop-color="#FBC83B"/>
<stop offset="0.5536" stop-color="#FBC03B"/>
<stop offset="0.7284" stop-color="#FBB23B"/>
<stop offset="0.8827" stop-color="#FB9D3B"/>
<stop offset="1" stop-color="#FB883B"/>
</linearGradient>
<linearGradient id="paint6_linear_4103_1358" x1="21.6359" y1="-3.82154" x2="21.6359" y2="88.7556" gradientUnits="userSpaceOnUse">
<stop stop-color="#FBCB3B"/>
<stop offset="0.343" stop-color="#FBC83B"/>
<stop offset="0.5536" stop-color="#FBC03B"/>
<stop offset="0.7284" stop-color="#FBB23B"/>
<stop offset="0.8827" stop-color="#FB9D3B"/>
<stop offset="1" stop-color="#FB883B"/>
</linearGradient>
<linearGradient id="paint7_linear_4103_1358" x1="10.5167" y1="-3.82244" x2="10.5167" y2="88.7563" gradientUnits="userSpaceOnUse">
<stop stop-color="#FBCB3B"/>
<stop offset="0.343" stop-color="#FBC83B"/>
<stop offset="0.5536" stop-color="#FBC03B"/>
<stop offset="0.7284" stop-color="#FBB23B"/>
<stop offset="0.8827" stop-color="#FB9D3B"/>
<stop offset="1" stop-color="#FB883B"/>
</linearGradient>
<linearGradient id="paint8_linear_4103_1358" x1="1.4789" y1="-3.82242" x2="1.4789" y2="88.7564" gradientUnits="userSpaceOnUse">
<stop stop-color="#FBCB3B"/>
<stop offset="0.343" stop-color="#FBC83B"/>
<stop offset="0.5536" stop-color="#FBC03B"/>
<stop offset="0.7284" stop-color="#FBB23B"/>
<stop offset="0.8827" stop-color="#FB9D3B"/>
<stop offset="1" stop-color="#FB883B"/>
</linearGradient>
<linearGradient id="paint9_linear_4103_1358" x1="29.4666" y1="-3.82269" x2="29.4666" y2="88.7562" gradientUnits="userSpaceOnUse">
<stop stop-color="#FBCB3B"/>
<stop offset="0.343" stop-color="#FBC83B"/>
<stop offset="0.5536" stop-color="#FBC03B"/>
<stop offset="0.7284" stop-color="#FBB23B"/>
<stop offset="0.8827" stop-color="#FB9D3B"/>
<stop offset="1" stop-color="#FB883B"/>
</linearGradient>
<linearGradient id="paint10_linear_4103_1358" x1="21.6044" y1="-3.82326" x2="21.6044" y2="88.7559" gradientUnits="userSpaceOnUse">
<stop stop-color="#FBCB3B"/>
<stop offset="0.343" stop-color="#FBC83B"/>
<stop offset="0.5536" stop-color="#FBC03B"/>
<stop offset="0.7284" stop-color="#FBB23B"/>
<stop offset="0.8827" stop-color="#FB9D3B"/>
<stop offset="1" stop-color="#FB883B"/>
</linearGradient>
<linearGradient id="paint11_linear_4103_1358" x1="15.2137" y1="-3.82104" x2="15.2137" y2="88.7564" gradientUnits="userSpaceOnUse">
<stop stop-color="#FBCB3B"/>
<stop offset="0.343" stop-color="#FBC83B"/>
<stop offset="0.5536" stop-color="#FBC03B"/>
<stop offset="0.7284" stop-color="#FBB23B"/>
<stop offset="0.8827" stop-color="#FB9D3B"/>
<stop offset="1" stop-color="#FB883B"/>
</linearGradient>
<linearGradient id="paint12_linear_4103_1358" x1="48.7216" y1="-3.82222" x2="48.7216" y2="88.7562" gradientUnits="userSpaceOnUse">
<stop stop-color="#FBCB3B"/>
<stop offset="0.343" stop-color="#FBC83B"/>
<stop offset="0.5536" stop-color="#FBC03B"/>
<stop offset="0.7284" stop-color="#FBB23B"/>
<stop offset="0.8827" stop-color="#FB9D3B"/>
<stop offset="1" stop-color="#FB883B"/>
</linearGradient>
<linearGradient id="paint13_linear_4103_1358" x1="48.7216" y1="-3.82227" x2="48.7216" y2="88.7563" gradientUnits="userSpaceOnUse">
<stop stop-color="#FBCB3B"/>
<stop offset="0.343" stop-color="#FBC83B"/>
<stop offset="0.5536" stop-color="#FBC03B"/>
<stop offset="0.7284" stop-color="#FBB23B"/>
<stop offset="0.8827" stop-color="#FB9D3B"/>
<stop offset="1" stop-color="#FB883B"/>
</linearGradient>
<linearGradient id="paint14_linear_4103_1358" x1="68.1204" y1="-3.82383" x2="68.1204" y2="88.756" gradientUnits="userSpaceOnUse">
<stop stop-color="#FBCB3B"/>
<stop offset="0.343" stop-color="#FBC83B"/>
<stop offset="0.5536" stop-color="#FBC03B"/>
<stop offset="0.7284" stop-color="#FBB23B"/>
<stop offset="0.8827" stop-color="#FB9D3B"/>
<stop offset="1" stop-color="#FB883B"/>
</linearGradient>
<linearGradient id="paint15_linear_4103_1358" x1="75.9827" y1="-3.82189" x2="75.9827" y2="88.756" gradientUnits="userSpaceOnUse">
<stop stop-color="#FBCB3B"/>
<stop offset="0.343" stop-color="#FBC83B"/>
<stop offset="0.5536" stop-color="#FBC03B"/>
<stop offset="0.7284" stop-color="#FBB23B"/>
<stop offset="0.8827" stop-color="#FB9D3B"/>
<stop offset="1" stop-color="#FB883B"/>
</linearGradient>
<linearGradient id="paint16_linear_4103_1358" x1="82.3737" y1="-3.82642" x2="82.3737" y2="88.7559" gradientUnits="userSpaceOnUse">
<stop stop-color="#FBCB3B"/>
<stop offset="0.343" stop-color="#FBC83B"/>
<stop offset="0.5536" stop-color="#FBC03B"/>
<stop offset="0.7284" stop-color="#FBB23B"/>
<stop offset="0.8827" stop-color="#FB9D3B"/>
<stop offset="1" stop-color="#FB883B"/>
</linearGradient>
<linearGradient id="paint17_linear_4103_1358" x1="76.3003" y1="-3.82152" x2="76.3003" y2="88.7557" gradientUnits="userSpaceOnUse">
<stop stop-color="#FBCB3B"/>
<stop offset="0.343" stop-color="#FBC83B"/>
<stop offset="0.5536" stop-color="#FBC03B"/>
<stop offset="0.7284" stop-color="#FBB23B"/>
<stop offset="0.8827" stop-color="#FB9D3B"/>
<stop offset="1" stop-color="#FB883B"/>
</linearGradient>
<linearGradient id="paint18_linear_4103_1358" x1="87.4196" y1="-3.8221" x2="87.4196" y2="88.7566" gradientUnits="userSpaceOnUse">
<stop stop-color="#FBCB3B"/>
<stop offset="0.343" stop-color="#FBC83B"/>
<stop offset="0.5536" stop-color="#FBC03B"/>
<stop offset="0.7284" stop-color="#FBB23B"/>
<stop offset="0.8827" stop-color="#FB9D3B"/>
<stop offset="1" stop-color="#FB883B"/>
</linearGradient>
<linearGradient id="paint19_linear_4103_1358" x1="96.4569" y1="-3.82235" x2="96.4569" y2="88.7565" gradientUnits="userSpaceOnUse">
<stop stop-color="#FBCB3B"/>
<stop offset="0.343" stop-color="#FBC83B"/>
<stop offset="0.5536" stop-color="#FBC03B"/>
<stop offset="0.7284" stop-color="#FBB23B"/>
<stop offset="0.8827" stop-color="#FB9D3B"/>
<stop offset="1" stop-color="#FB883B"/>
</linearGradient>
<linearGradient id="paint20_linear_4103_1358" x1="68.4691" y1="-3.82182" x2="68.4691" y2="88.7556" gradientUnits="userSpaceOnUse">
<stop stop-color="#FBCB3B"/>
<stop offset="0.343" stop-color="#FBC83B"/>
<stop offset="0.5536" stop-color="#FBC03B"/>
<stop offset="0.7284" stop-color="#FBB23B"/>
<stop offset="0.8827" stop-color="#FB9D3B"/>
<stop offset="1" stop-color="#FB883B"/>
</linearGradient>
<linearGradient id="paint21_linear_4103_1358" x1="76.3313" y1="-3.82239" x2="76.3313" y2="88.7575" gradientUnits="userSpaceOnUse">
<stop stop-color="#FBCB3B"/>
<stop offset="0.343" stop-color="#FBC83B"/>
<stop offset="0.5536" stop-color="#FBC03B"/>
<stop offset="0.7284" stop-color="#FBB23B"/>
<stop offset="0.8827" stop-color="#FB9D3B"/>
<stop offset="1" stop-color="#FB883B"/>
</linearGradient>
<linearGradient id="paint22_linear_4103_1358" x1="82.7224" y1="-3.82174" x2="82.7224" y2="88.7549" gradientUnits="userSpaceOnUse">
<stop stop-color="#FBCB3B"/>
<stop offset="0.343" stop-color="#FBC83B"/>
<stop offset="0.5536" stop-color="#FBC03B"/>
<stop offset="0.7284" stop-color="#FBB23B"/>
<stop offset="0.8827" stop-color="#FB9D3B"/>
<stop offset="1" stop-color="#FB883B"/>
</linearGradient>
<linearGradient id="paint23_linear_4103_1358" x1="38.1238" y1="-3.82399" x2="38.1238" y2="88.7556" gradientUnits="userSpaceOnUse">
<stop stop-color="#FBCB3B"/>
<stop offset="0.343" stop-color="#FBC83B"/>
<stop offset="0.5536" stop-color="#FBC03B"/>
<stop offset="0.7284" stop-color="#FBB23B"/>
<stop offset="0.8827" stop-color="#FB9D3B"/>
<stop offset="1" stop-color="#FB883B"/>
</linearGradient>
<linearGradient id="paint24_linear_4103_1358" x1="33.8045" y1="-3.8227" x2="33.8045" y2="88.7559" gradientUnits="userSpaceOnUse">
<stop stop-color="#FBCB3B"/>
<stop offset="0.343" stop-color="#FBC83B"/>
<stop offset="0.5536" stop-color="#FBC03B"/>
<stop offset="0.7284" stop-color="#FBB23B"/>
<stop offset="0.8827" stop-color="#FB9D3B"/>
<stop offset="1" stop-color="#FB883B"/>
</linearGradient>
<linearGradient id="paint25_linear_4103_1358" x1="59.0412" y1="-3.82313" x2="59.0412" y2="88.7553" gradientUnits="userSpaceOnUse">
<stop stop-color="#FBCB3B"/>
<stop offset="0.343" stop-color="#FBC83B"/>
<stop offset="0.5536" stop-color="#FBC03B"/>
<stop offset="0.7284" stop-color="#FBB23B"/>
<stop offset="0.8827" stop-color="#FB9D3B"/>
<stop offset="1" stop-color="#FB883B"/>
</linearGradient>
<linearGradient id="paint26_linear_4103_1358" x1="63.2318" y1="-3.82316" x2="63.2318" y2="88.7554" gradientUnits="userSpaceOnUse">
<stop stop-color="#FBCB3B"/>
<stop offset="0.343" stop-color="#FBC83B"/>
<stop offset="0.5536" stop-color="#FBC03B"/>
<stop offset="0.7284" stop-color="#FBB23B"/>
<stop offset="0.8827" stop-color="#FB9D3B"/>
<stop offset="1" stop-color="#FB883B"/>
</linearGradient>
<linearGradient id="paint27_linear_4103_1358" x1="74.0582" y1="-3.82297" x2="74.0582" y2="88.7554" gradientUnits="userSpaceOnUse">
<stop stop-color="#FBCB3B"/>
<stop offset="0.343" stop-color="#FBC83B"/>
<stop offset="0.5536" stop-color="#FBC03B"/>
<stop offset="0.7284" stop-color="#FBB23B"/>
<stop offset="0.8827" stop-color="#FB9D3B"/>
<stop offset="1" stop-color="#FB883B"/>
</linearGradient>
<linearGradient id="paint28_linear_4103_1358" x1="84.3042" y1="-3.82269" x2="84.3042" y2="88.7554" gradientUnits="userSpaceOnUse">
<stop stop-color="#FBCB3B"/>
<stop offset="0.343" stop-color="#FBC83B"/>
<stop offset="0.5536" stop-color="#FBC03B"/>
<stop offset="0.7284" stop-color="#FBB23B"/>
<stop offset="0.8827" stop-color="#FB9D3B"/>
<stop offset="1" stop-color="#FB883B"/>
</linearGradient>
<linearGradient id="paint29_linear_4103_1358" x1="74.3772" y1="-3.82286" x2="74.3772" y2="88.7556" gradientUnits="userSpaceOnUse">
<stop stop-color="#FBCB3B"/>
<stop offset="0.343" stop-color="#FBC83B"/>
<stop offset="0.5536" stop-color="#FBC03B"/>
<stop offset="0.7284" stop-color="#FBB23B"/>
<stop offset="0.8827" stop-color="#FB9D3B"/>
<stop offset="1" stop-color="#FB883B"/>
</linearGradient>
<linearGradient id="paint30_linear_4103_1358" x1="84.6763" y1="-3.82284" x2="84.6763" y2="88.7547" gradientUnits="userSpaceOnUse">
<stop stop-color="#FBCB3B"/>
<stop offset="0.343" stop-color="#FBC83B"/>
<stop offset="0.5536" stop-color="#FBC03B"/>
<stop offset="0.7284" stop-color="#FBB23B"/>
<stop offset="0.8827" stop-color="#FB9D3B"/>
<stop offset="1" stop-color="#FB883B"/>
</linearGradient>
<linearGradient id="paint31_linear_4103_1358" x1="59.8122" y1="-3.82274" x2="59.8122" y2="88.7559" gradientUnits="userSpaceOnUse">
<stop stop-color="#FBCB3B"/>
<stop offset="0.343" stop-color="#FBC83B"/>
<stop offset="0.5536" stop-color="#FBC03B"/>
<stop offset="0.7284" stop-color="#FBB23B"/>
<stop offset="0.8827" stop-color="#FB9D3B"/>
<stop offset="1" stop-color="#FB883B"/>
</linearGradient>
<linearGradient id="paint32_linear_4103_1358" x1="64.1313" y1="-3.82291" x2="64.1313" y2="88.7554" gradientUnits="userSpaceOnUse">
<stop stop-color="#FBCB3B"/>
<stop offset="0.343" stop-color="#FBC83B"/>
<stop offset="0.5536" stop-color="#FBC03B"/>
<stop offset="0.7284" stop-color="#FBB23B"/>
<stop offset="0.8827" stop-color="#FB9D3B"/>
<stop offset="1" stop-color="#FB883B"/>
</linearGradient>
<linearGradient id="paint33_linear_4103_1358" x1="38.8945" y1="-3.82288" x2="38.8945" y2="88.7556" gradientUnits="userSpaceOnUse">
<stop stop-color="#FBCB3B"/>
<stop offset="0.343" stop-color="#FBC83B"/>
<stop offset="0.5536" stop-color="#FBC03B"/>
<stop offset="0.7284" stop-color="#FBB23B"/>
<stop offset="0.8827" stop-color="#FB9D3B"/>
<stop offset="1" stop-color="#FB883B"/>
</linearGradient>
<linearGradient id="paint34_linear_4103_1358" x1="34.7035" y1="-3.82321" x2="34.7035" y2="88.7563" gradientUnits="userSpaceOnUse">
<stop stop-color="#FBCB3B"/>
<stop offset="0.343" stop-color="#FBC83B"/>
<stop offset="0.5536" stop-color="#FBC03B"/>
<stop offset="0.7284" stop-color="#FBB23B"/>
<stop offset="0.8827" stop-color="#FB9D3B"/>
<stop offset="1" stop-color="#FB883B"/>
</linearGradient>
<linearGradient id="paint35_linear_4103_1358" x1="23.8777" y1="-3.82289" x2="23.8777" y2="88.7562" gradientUnits="userSpaceOnUse">
<stop stop-color="#FBCB3B"/>
<stop offset="0.343" stop-color="#FBC83B"/>
<stop offset="0.5536" stop-color="#FBC03B"/>
<stop offset="0.7284" stop-color="#FBB23B"/>
<stop offset="0.8827" stop-color="#FB9D3B"/>
<stop offset="1" stop-color="#FB883B"/>
</linearGradient>
<linearGradient id="paint36_linear_4103_1358" x1="13.6318" y1="-3.82284" x2="13.6318" y2="88.7559" gradientUnits="userSpaceOnUse">
<stop stop-color="#FBCB3B"/>
<stop offset="0.343" stop-color="#FBC83B"/>
<stop offset="0.5536" stop-color="#FBC03B"/>
<stop offset="0.7284" stop-color="#FBB23B"/>
<stop offset="0.8827" stop-color="#FB9D3B"/>
<stop offset="1" stop-color="#FB883B"/>
</linearGradient>
<linearGradient id="paint37_linear_4103_1358" x1="23.5586" y1="-3.82228" x2="23.5586" y2="88.7562" gradientUnits="userSpaceOnUse">
<stop stop-color="#FBCB3B"/>
<stop offset="0.343" stop-color="#FBC83B"/>
<stop offset="0.5536" stop-color="#FBC03B"/>
<stop offset="0.7284" stop-color="#FBB23B"/>
<stop offset="0.8827" stop-color="#FB9D3B"/>
<stop offset="1" stop-color="#FB883B"/>
</linearGradient>
<linearGradient id="paint38_linear_4103_1358" x1="13.2595" y1="-3.82262" x2="13.2595" y2="88.7559" gradientUnits="userSpaceOnUse">
<stop stop-color="#FBCB3B"/>
<stop offset="0.343" stop-color="#FBC83B"/>
<stop offset="0.5536" stop-color="#FBC03B"/>
<stop offset="0.7284" stop-color="#FBB23B"/>
<stop offset="0.8827" stop-color="#FB9D3B"/>
<stop offset="1" stop-color="#FB883B"/>
</linearGradient>
<linearGradient id="paint39_linear_4103_1358" x1="48.9681" y1="-3.82239" x2="48.9681" y2="88.756" gradientUnits="userSpaceOnUse">
<stop stop-color="#FBCB3B"/>
<stop offset="0.343" stop-color="#FBC83B"/>
<stop offset="0.5536" stop-color="#FBC03B"/>
<stop offset="0.7284" stop-color="#FBB23B"/>
<stop offset="0.8827" stop-color="#FB9D3B"/>
<stop offset="1" stop-color="#FB883B"/>
</linearGradient>
</defs>
</svg>
