<svg width="209" height="271" viewBox="0 0 209 271" fill="none" xmlns="http://www.w3.org/2000/svg">
<path d="M77.0497 251.116C69.5793 241.706 74.1979 222.792 74.1979 222.792C74.1979 222.792 74.4839 197.672 69.6212 221.839C64.7585 246.006 72.1712 251.242 72.1712 251.242C72.1712 251.242 51.7189 249.137 48.1256 249.329C44.5311 249.521 44.5842 251.815 44.5842 251.815C34.366 253.584 32.4569 264.669 43.9739 259.41C55.4897 254.151 65.5034 254.286 65.5034 254.286C50.0585 256.848 40.9717 272.081 54.7222 264.064C68.4716 256.046 74.2329 254.357 76.7536 254.076C79.2742 253.795 84.2421 261.811 85.4459 257.496C86.6474 253.18 77.0497 251.116 77.0497 251.116ZM125.612 256.029C122.69 251.722 118.168 252.228 118.168 252.228C118.168 252.228 120.29 249.607 118.987 248.827C117.684 248.046 105.712 248.192 99.5219 249.413C99.5219 249.413 99.2948 235.802 97.4489 230.314C95.6019 224.828 92.7038 230.05 93.1084 232.389C93.1084 232.389 95.5036 249.598 94.666 251.677C93.8284 253.755 88.7544 257.632 91.9159 257.015C95.0775 256.397 96.903 253.545 96.903 253.545C96.903 253.545 106.736 260.523 108.371 264.18C110.007 267.836 116.668 260.208 102.846 253.675C102.846 253.675 112.914 254.537 117.181 258.827C121.448 263.115 128.537 260.337 125.612 256.029Z" fill="#D67665"/>
<path d="M43.5638 254.963C43.5638 254.963 38.822 258.548 35.9035 263.209C32.9861 267.87 27.8781 260.7 34.4442 254.604C41.0103 248.509 43.5638 254.963 43.5638 254.963Z" fill="#4A233D"/>
<path d="M116.155 251.019C116.155 251.019 121.262 250.661 123.816 251.019C126.369 251.378 116.52 244.925 116.155 251.019Z" fill="#4A233D"/>
<path d="M73.5234 226.334C71.69 226.464 70.0555 226.662 68.7319 226.932C67.5021 235.311 67.9259 240.951 68.8268 244.669C71.0751 246.972 73.6443 248.393 75.3093 248.35C71.8335 241.366 72.705 231.533 73.5234 226.334ZM97.4481 230.313C95.6011 224.826 92.7029 230.049 93.1076 232.387C93.1076 232.387 94.7239 244 94.8359 249.299C96.2996 248.99 98.0415 247.107 99.2973 243.807C99.0441 239.4 98.5185 233.494 97.4481 230.313Z" fill="#B94242"/>
<path d="M45.496 152.005C45.496 152.005 21.005 208.17 53.6593 231.623C86.3125 255.074 53.0309 226.684 53.0309 226.684C53.0309 226.684 78.1492 245.817 79.405 229.154C79.405 229.154 75.6364 245.818 84.4282 243.348C93.2199 240.879 103.268 232.239 103.268 232.239C103.268 232.239 95.7316 240.262 103.268 240.262C110.802 240.262 138.433 231.621 134.038 192.739C129.642 153.856 109.548 131.637 98.8716 127.935C88.1967 124.233 49.8908 134.725 45.496 152.005Z" fill="#BFCBAE"/>
<path d="M41.7087 167.294C41.7087 167.294 40.9355 191.611 47.8939 198.07C54.8522 204.529 66.4495 178.313 66.4495 178.313C66.4495 178.313 62.5837 187.052 66.836 190.471C71.0884 193.891 75.3407 182.112 75.3407 182.112C75.3407 182.112 78.0467 210.229 89.6439 212.509C101.241 214.788 108.973 182.113 108.587 180.213C108.201 178.313 110.134 187.812 114.772 188.193C119.411 188.571 115.546 162.736 115.546 162.736C115.546 162.736 120.572 175.654 122.505 171.474C124.438 167.294 125.211 152.856 113.227 139.558C101.242 126.259 45.1878 122.46 41.7087 167.294Z" fill="#D9E0D5"/>
<path d="M7.81704 12.5231C7.81704 12.5231 14.7245 39.6788 21.0047 45.2335C27.2848 50.7881 7.1897 32.8899 0.910684 32.2733C-5.36946 31.6556 22.8889 51.4058 22.8889 51.4058C22.8889 51.4058 7.1897 49.555 3.42229 53.2577C-0.346249 56.9605 29.7964 58.8124 29.7964 58.8124C29.7964 58.8124 7.1897 68.0698 10.9582 73.6245C14.7268 79.1791 32.481 67.811 32.481 67.811C32.481 67.811 24.7743 113.125 31.6807 143.367C38.5882 173.609 20.3785 191.507 30.4249 211.874C40.4724 232.24 38.5882 185.952 38.5882 185.952C38.5882 185.952 39.844 193.358 42.3567 193.358C44.8683 193.358 41.7282 171.757 41.7282 171.757C41.7282 171.757 45.4957 139.663 78.1499 134.108C110.803 128.553 126.503 165.584 123.363 179.162C120.223 192.74 127.759 197.06 128.388 193.356C129.015 189.654 132.784 214.959 140.32 220.513C147.854 226.068 154.134 212.49 147.226 187.185C140.32 161.88 157.273 132.257 157.902 95.2255C157.902 95.2255 163.554 97.694 169.205 97.0763C174.857 96.4597 163.554 84.7327 163.554 84.7327C163.554 84.7327 168.577 90.9039 177.369 86.5846C186.159 82.2642 166.065 81.03 166.065 81.03C166.065 81.03 174.857 82.2642 191.185 72.3891C207.511 62.514 171.718 71.1549 170.461 73.0057C169.205 74.8576 206.254 58.8113 206.883 52.0213C207.511 45.2323 176.113 66.8333 172.974 68.0676C169.834 69.3018 208.14 40.2954 208.14 26.7164C208.14 13.1386 173.602 48.3174 161.043 58.8102C148.484 69.3018 85.6881 76.7084 55.5455 57.5759C25.4028 38.4434 22.2639 23.6302 14.729 6.96736C7.1897 -9.69554 6.56123 8.20271 7.81704 12.5231Z" fill="#81A997"/>
<path d="M30.816 96.2297C30.816 96.2297 26.8056 119.883 41.5655 122.879C56.3266 125.875 70.2862 112.787 73.4941 98.4371C76.7031 84.0883 33.0631 83.9295 30.816 96.2297Z" fill="#6E9182"/>
<path d="M113.123 92.1296C113.123 92.1296 117.615 124.298 136.547 127.136C155.479 129.975 149.382 101.906 147.778 95.4413C146.176 88.9768 111.518 77.622 113.123 92.1296Z" fill="#6E9182"/>
<path d="M62.2492 171.926C61.7383 174.284 59.6393 179.443 62.4007 181.156C64.797 182.642 68.5622 179.336 69.1059 177.1C69.367 176.025 67.1289 176.259 66.8893 177.246C66.7389 177.863 65.7205 178.779 65.2412 179.182C63.9086 180.305 63.3977 179.404 63.3479 177.985C63.2733 175.881 64.0273 173.814 64.467 171.781C64.7021 170.691 62.464 170.932 62.2492 171.926Z" fill="#BFCBAE"/>
<path d="M72.315 179.958C72.1647 181.234 72.0279 182.878 72.9096 183.953C73.8048 185.044 75.4279 184.905 76.6578 184.586C76.9969 184.498 77.718 184.184 77.5937 183.725C77.4682 183.265 76.6679 183.355 76.3458 183.439C74.2072 183.995 74.3507 181.007 74.5045 179.708C74.6096 178.809 72.4066 179.185 72.315 179.958Z" fill="#BFCBAE"/>
<path d="M101.698 177.08C101.773 180.014 103.861 183.036 106.96 183.494C110.322 183.991 111.867 181.347 111.614 178.405C111.547 177.63 109.354 178.102 109.43 178.981C109.501 179.808 109.607 181.575 108.716 182.117C108.183 182.441 107.413 182.072 106.922 181.81C104.958 180.761 103.935 178.639 103.881 176.506C103.863 175.752 101.676 176.192 101.698 177.08Z" fill="#BFCBAE"/>
<path d="M72.6912 157.881C72.6132 163.676 74.519 171.772 82.1024 170.76C89.1082 169.825 92.0991 162.25 92.2958 156.19C91.5938 156.375 90.8919 156.56 90.19 156.745C92.6405 160.801 98.9003 161.307 99.6407 155.811C99.7865 154.726 97.6016 155.062 97.4309 155.983C96.1638 162.847 101.173 169.868 108.192 171.209C115.419 172.59 117.615 166.522 116.636 160.548C116.478 159.581 114.288 160.117 114.453 161.123C115.539 167.75 111.933 172.2 105.399 168.142C101.075 165.457 98.7206 160.786 99.6396 155.809C98.9026 155.867 98.1668 155.925 97.4298 155.982C94.7498 158.014 93.0034 157.956 92.1907 155.807C91.7837 155.133 90.1097 155.594 90.0848 156.362C89.9311 161.073 88.2062 167.724 82.7716 169.051C76.141 170.669 74.8377 162.242 74.8988 157.708C74.9157 156.607 72.7037 156.937 72.6912 157.881Z" fill="#BFCBAE"/>
<path d="M46.8022 200.258C47.3798 207.587 51.1393 215.429 59.8644 214.156C67.8898 212.986 73.0769 205.566 74.8978 198.352C75.1397 197.394 72.9164 197.674 72.6948 198.55C71.1463 204.685 66.8046 211.802 59.7977 212.732C52.0877 213.755 49.4608 205.696 48.986 199.683C48.9159 198.797 46.7265 199.291 46.8022 200.258Z" fill="#81A997"/>
<path d="M104.79 200.099C104.792 204.437 104.618 211.913 109.354 214.279C112.387 215.795 116.066 214.269 118.691 212.641C122.468 210.296 125.7 206.84 128.174 203.21C129.308 201.547 132.317 197.409 130.476 195.364C129.964 194.796 127.875 195.573 128.45 196.213C131.383 199.469 106.992 230.65 106.975 199.838C106.975 198.929 104.79 199.375 104.79 200.099Z" fill="#81A997"/>
<path d="M75.4043 211.865C73.7427 216.433 72.1071 228.662 78.1103 231.196C80.8796 232.364 83.8377 230.328 85.748 228.532C90.171 224.372 93.2387 218.333 95.3807 212.773C95.6859 211.981 93.4863 212.229 93.1867 213.005C91.8281 216.531 82.2462 236.108 77.8006 228.013C75.2698 223.403 75.8632 216.404 77.5983 211.634C77.8922 210.827 75.6891 211.082 75.4043 211.865Z" fill="#81A997"/>
<path d="M44.483 217.355C45.5128 221.266 50.3156 229.73 55.5038 228.208C61.3499 226.493 57.8368 216.419 55.9446 212.981C55.6055 212.364 53.5133 213.106 53.7608 213.556C54.7906 215.428 55.4597 217.519 55.9186 219.592C56.2984 221.306 57.2795 225.888 55.3727 227.122C53.9123 228.067 50.9542 224.32 50.1878 223.323C48.7014 221.387 47.2908 219.152 46.6657 216.78C46.5097 216.184 44.3225 216.745 44.483 217.355Z" fill="#81A997"/>
<path d="M104.457 218.864C101.061 224.582 98.8731 234.878 109.016 233.368C119.763 231.768 128.028 220.412 130.953 210.898C130.251 211.082 129.549 211.267 128.847 211.452C129.363 212.212 129.878 212.972 130.394 213.732C130.804 214.337 131.904 213.95 132.303 213.558C132.818 213.052 133.334 212.545 133.849 212.038C134.803 211.102 132.692 210.816 132.036 211.46C131.521 211.966 131.004 212.472 130.49 212.979C131.126 212.922 131.762 212.864 132.398 212.806C131.882 212.046 131.367 211.286 130.851 210.527C130.352 209.79 128.952 210.41 128.746 211.081C126.369 218.813 120.589 227.041 113.028 230.589C101.671 235.918 102.86 225.257 106.533 219.071C107.13 218.066 104.916 218.091 104.457 218.864Z" fill="#81A997"/>
<path d="M92.8061 213.556C93.213 214.811 93.9116 216.12 95.3098 216.47C96.5181 216.772 97.9684 216.37 99.0354 215.802C101.556 214.462 102.69 211.397 101.562 208.801C101.362 208.339 99.2366 209.051 99.3779 209.376C100.176 211.213 99.8899 213.312 98.5629 214.848C97.9198 215.591 97.6032 215.956 96.7634 215.54C95.7732 215.049 95.3053 213.958 94.9888 212.98C94.8498 212.549 92.6795 213.166 92.8061 213.556Z" fill="#81A997"/>
<path d="M68.0655 208.237C68.529 210.464 69.839 213.225 72.1833 214.049C74.7164 214.94 76.8426 213.099 77.904 211.009C78.3651 210.101 76.1904 210.341 75.8716 210.969C75.5721 211.559 74.9707 212.948 74.1874 213.057C73.5307 213.148 72.7112 212.325 72.3303 211.923C71.2169 210.749 70.5715 209.217 70.2482 207.661C70.0979 206.934 67.905 207.464 68.0655 208.237Z" fill="#81A997"/>
<path d="M36.7518 149.723C39.2238 156.063 42.6691 162.77 40.6107 169.684C40.3496 170.559 42.5639 170.282 42.807 169.463C44.8992 162.435 41.4551 155.613 38.9344 149.148C38.6044 148.3 36.4375 148.918 36.7518 149.723Z" fill="#6E9182"/>
<path d="M129.229 159.702C125.751 165.487 123.149 171.383 123.347 178.22C123.363 178.807 125.553 178.413 125.53 177.645C125.337 170.985 127.858 165.323 131.245 159.688C131.727 158.889 129.562 159.148 129.229 159.702Z" fill="#6E9182"/>
<path d="M123.363 161.03C122.573 163.543 122.69 166.072 124.12 168.342C124.439 168.848 126.463 168.02 126.303 167.766C124.904 165.544 124.736 163.116 125.514 160.64C125.633 160.263 123.531 160.497 123.363 161.03Z" fill="#6E9182"/>
<path d="M126.439 183.54C126.45 186.898 127.386 194.515 132.598 190.802C136.377 188.109 136.202 181.109 136.742 177.039C136.015 177.179 135.287 177.32 134.559 177.46C134.686 183.59 139.815 205.559 149.284 195.208C150.138 194.274 148.023 194.314 147.532 194.852C142.99 199.816 140.011 191.361 138.895 187.876C137.774 184.38 136.818 180.57 136.742 176.884C136.728 176.192 134.643 176.669 134.559 177.305C134.162 180.295 133.937 183.317 133.099 186.232C132.609 187.938 131.037 192.188 129.122 188.326C128.414 186.899 128.628 184.499 128.623 182.963C128.621 182.298 126.437 182.703 126.439 183.54Z" fill="#6E9182"/>
<path d="M32.0974 178.775C31.4441 181.321 31.4045 184.793 33.5894 186.696C35.3754 188.253 37.887 187.295 38.6002 185.182C39.2468 183.268 38.9303 181.097 38.5482 179.165C38.3527 178.178 36.1643 178.726 36.3644 179.741C36.6979 181.423 37.0516 183.441 36.4537 185.114C36.3961 185.276 36.2175 185.64 36.1926 185.676C36.1225 185.776 36.0332 185.856 35.9564 185.95C36.0411 185.872 36.0411 185.869 35.9541 185.937C35.8535 186.005 35.8659 185.998 35.9925 185.918C35.8738 185.893 36.0875 185.987 36.127 185.925C36.0784 186.004 35.8331 185.87 35.7698 185.832C35.6319 185.749 35.2058 185.404 34.982 185.111C34.618 184.632 34.3818 184.093 34.2145 183.521C33.742 181.911 33.898 180.217 34.3095 178.612C34.574 177.584 32.3404 177.834 32.0974 178.775Z" fill="#6E9182"/>
<path d="M39.4689 132.134C37.7847 135.287 39.6577 139.072 43.4522 138.864C47.7769 138.626 48.7908 134.476 49.7482 131.024C49.0282 131.141 48.307 131.257 47.587 131.375C46.9212 135.153 47.0241 141.192 52.4339 140.243C56.8218 139.473 60.162 135.016 62.1197 131.405C62.3221 131.032 60.2705 131.181 59.9585 131.756C58.7751 133.94 56.4816 137.694 54.005 138.725C48.8281 140.88 49.2565 133.812 49.7482 131.025C49.8533 130.429 47.7385 130.827 47.587 131.375C47.3587 132.197 47.1586 133.031 46.8998 133.845C46.2792 135.798 46.2871 136.278 44.1146 136.803C42.0868 137.293 41.5363 136.986 41.0921 135.004C40.8219 133.802 41.0751 132.826 41.6313 131.785C41.8313 131.406 39.7764 131.557 39.4689 132.134Z" fill="#6E9182"/>
<path d="M102.102 123.798C99.7655 132.521 112.481 143.143 120.418 144C123.119 144.291 126.856 143.546 128.735 141.438C132.205 137.545 128.096 131.83 125.53 128.632C125.24 128.27 123.215 128.769 123.347 129.207C125.181 135.323 131.796 140.877 138.58 139.311C144.701 137.899 146.565 132.055 144.086 126.732C143.863 126.253 141.753 126.987 141.902 127.308C144.21 132.264 143.19 140.532 134.619 138.143C130.221 136.916 126.784 132.81 125.53 128.633C124.802 128.825 124.074 129.016 123.347 129.209C125.231 131.557 127.507 134.553 127.768 137.658C128.082 141.38 124.331 143.395 120.758 142.949C118.896 142.715 116.77 141.396 115.232 140.423C110.149 137.215 102.442 130.151 104.25 123.403C104.351 123.024 102.24 123.284 102.102 123.798Z" fill="#6E9182"/>
<path d="M80.0673 82.7647C76.5542 86.9985 78.4735 91.2433 84.1308 91.0723C89.6638 90.9056 93.8257 87.2384 94.9719 81.9859C94.2564 82.1192 93.5398 82.2514 92.8243 82.3847C91.8488 87.0262 94.3242 90.5857 99.3395 90.219C102.185 90.0113 106.249 88.3094 104.268 84.9377C103.981 84.4489 101.938 85.2632 102.084 85.5131C103.792 88.4205 100.809 90.1035 97.9752 89.0548C94.8408 87.895 94.3593 84.9021 94.9719 81.9859C95.0567 81.5838 92.9316 81.887 92.8243 82.3847C91.8646 86.7829 87.8044 92.312 82.4444 89.7091C79.0082 88.0405 80.2662 84.7144 82.2149 82.3659C82.2986 82.2659 80.4731 82.2759 80.0673 82.7647Z" fill="#6E9182"/>
<path d="M88.167 77.9131C89.7145 81.6059 94.3172 82.609 96.7451 79.0852C96.9068 78.8508 97.0469 78.5508 96.8299 78.292C96.0093 77.3143 94.6111 76.9711 93.5587 77.8931C92.4567 78.8585 94.1849 79.6017 95.0089 78.8796C95.1514 78.7474 95.0926 78.8674 94.8315 79.2396C94.8597 78.9752 94.888 78.7108 94.9163 78.4464C94.3161 79.3173 93.5892 80.0284 92.4691 79.6273C91.4427 79.2596 90.7498 78.292 90.3497 77.3388C89.9484 76.3756 87.7782 76.9855 88.167 77.9131Z" fill="#6E9182"/>
<path d="M68.0652 109.07C71.385 119.32 58.1861 126.206 50.0544 128.714C48.7647 129.111 49.0563 130.292 50.3743 129.886C59.1378 127.183 73.8717 119.683 70.249 108.495C69.9868 107.688 67.8097 108.283 68.0652 109.07Z" fill="#6E9182"/>
<path d="M116.057 107.929C112.678 116.859 119.033 125.987 128.965 124.71C130.128 124.56 130.683 123.058 129.189 123.251C120.362 124.386 115.24 115.753 118.129 108.116C118.549 107.005 116.369 107.105 116.057 107.929Z" fill="#6E9182"/>
<path d="M159.618 84.8459C159.618 84.8459 163.87 87.5054 164.642 82.1863C165.417 76.8671 160.39 74.5875 160.39 74.5875C160.39 74.5875 165.029 74.2076 167.735 70.7881C170.441 67.3687 163.869 65.469 163.869 65.469C163.869 65.469 189.383 38.8721 197.116 34.3139C204.847 29.7547 172.762 66.6099 170.829 69.2695C168.896 71.929 175.468 69.2695 178.56 70.0294C181.653 70.7892 166.963 76.4883 165.803 76.4883C164.644 76.4883 171.602 79.1479 169.283 81.4275C166.963 83.7072 166.963 83.7072 166.963 83.7072C166.963 83.7072 165.03 86.7456 159.618 84.8459Z" fill="#5C7D6F"/>
<path d="M37.4565 53.3089C37.4565 53.3089 18.1278 21.774 12.3292 19.1144C6.53054 16.4548 18.5144 43.8115 21.2204 46.85C23.9264 49.8895 16.5815 44.5703 20.8338 48.3697C25.0861 52.1691 28.953 51.7892 28.953 51.7892C28.953 51.7892 11.5571 54.8287 18.9009 57.1083C26.2459 59.388 32.8188 59.008 32.8188 59.008C32.8188 59.008 25.0873 64.7071 30.4993 66.6068C35.9114 68.5065 42.8697 62.4275 42.8697 62.4275C42.8697 62.4275 23.5387 51.7903 37.4565 53.3089Z" fill="#5C7D6F"/>
<path d="M32.4798 67.8094C32.4798 67.8094 20.6859 113.693 49.6801 116.108C78.6743 118.524 83.0973 73.6063 67.8638 55.7347C52.628 37.8653 34.4454 57.1845 32.4798 67.8094Z" fill="#D9E0D5"/>
<path d="M114.056 69.7419C114.056 69.7419 106.193 107.898 126.832 112.727C147.472 117.558 163.197 78.9182 151.895 62.9796C140.593 47.0421 115.53 50.4227 114.056 69.7419Z" fill="#D9E0D5"/>
<path d="M33.4626 93.8905C33.4626 93.8905 34.9365 73.1216 50.1712 66.8437C65.4047 60.5647 75.7247 91.4764 71.3028 97.7554C66.8798 104.034 57.0516 68.7767 51.6452 71.1908C46.2399 73.6059 37.8844 93.8916 37.3939 100.169C36.9022 106.448 31.9875 100.653 33.4626 93.8905Z" fill="#4A233D"/>
<path d="M113.564 100.653C113.564 100.653 114.547 85.6802 124.376 79.8844C134.204 74.0887 157.792 92.9246 155.334 104.999C152.877 117.073 136.17 85.1969 129.289 84.2304C122.41 83.2639 117.495 102.101 115.53 105.481C113.564 108.863 112.582 104.034 113.564 100.653Z" fill="#4A233D"/>
<path d="M50.6011 51.4086C50.6011 51.4086 50.2145 64.3265 55.24 64.7076C60.2655 65.0875 59.4923 52.5495 57.5595 50.6498C55.6266 48.7501 50.9877 47.6092 50.6011 51.4086Z" fill="#E0F0E6"/>
<path d="M131.783 57.1093C131.783 57.1093 132.943 71.547 132.169 74.9664C131.396 78.3859 138.741 83.705 140.674 78.006C142.607 72.3069 142.22 59.7689 139.901 56.7294C137.581 53.6898 131.397 53.6898 131.783 57.1093Z" fill="#E0F0E6"/>
<path d="M131.01 94.7237C131.01 94.7237 129.077 100.423 129.077 104.602C129.077 108.781 134.102 108.401 136.035 101.183C137.969 93.9649 131.783 90.9254 131.01 94.7237Z" fill="#E0F0E6"/>
<path d="M53.6937 85.2248C53.6937 85.2248 53.3071 93.2035 53.3071 101.182C53.3071 109.161 57.5594 105.362 59.8789 98.5227C62.1983 91.6838 54.0791 74.5865 53.6937 85.2248Z" fill="#E0F0E6"/>
<path d="M51.2245 262.492C51.2245 262.492 42.47 270.021 45.0234 270.38C47.5769 270.739 54.8732 260.342 51.2245 262.492Z" fill="#4A233D"/>
<path d="M107.401 260.699C107.401 260.699 108.86 266.077 110.318 268.946C111.778 271.814 112.507 263.927 110.318 260.342C108.131 256.757 106.672 258.549 107.401 260.699Z" fill="#4A233D"/>
<path d="M121.627 257.473C121.627 257.473 125.639 262.134 127.463 264.643C129.287 267.152 131.841 258.548 127.098 254.604C122.357 250.66 119.438 254.246 121.627 257.473Z" fill="#4A233D"/>
<path d="M85.6702 106.234C85.6702 106.234 78.0698 106.234 78.0698 113.704C78.0698 121.174 79.3358 135.49 85.3537 134.868C91.3705 134.246 106.571 122.108 97.7038 108.725C88.8374 95.3401 85.6702 106.234 85.6702 106.234Z" fill="#6E9182"/>
<path d="M89.7864 103.744C89.7864 103.744 80.286 105.611 80.6025 111.525C80.9201 117.438 80.6025 132.689 85.3533 134.868C90.1041 137.046 100.553 116.505 97.7033 108.724C94.8537 100.943 89.7864 103.744 89.7864 103.744Z" fill="#F2B985"/>
<path d="M81.87 109.658C81.87 109.658 81.237 130.511 86.9373 132.067C92.6376 133.623 99.4275 108.936 97.6156 105.718C95.8048 102.499 81.5535 105.923 81.87 109.658Z" fill="#B94242"/>
<path d="M82.545 110.655C82.545 110.655 85.0566 120.53 88.1967 126.701C91.3367 132.873 97.6169 112.506 97.6169 105.716C97.6157 98.9286 81.2892 105.101 82.545 110.655Z" fill="#F2B985"/>
<path d="M91.3711 107.479C91.3711 107.479 91.3711 115.26 91.3711 118.683C91.3711 122.107 96.4373 115.572 96.1208 109.035C95.8043 102.498 92.3206 104.677 91.3711 107.479Z" fill="#F6D78F"/>
</svg>
